<svg id="Capa_1" enable-background="new 0 0 510.256 510.256" height="512" viewBox="0 0 510.256 510.256" width="512" xmlns="http://www.w3.org/2000/svg"><g><path d="m363.901 159.965c-7.932-52.596-52.505-93.177-106.889-94.923h17.15l4.407-49.946c.435-4.966-3.237-9.343-8.203-9.778l-14.465-1.268c-4.965-.434-9.343 3.238-9.778 8.204l-4.658 52.788h8.242c-54.514 1.75-99.167 42.523-106.942 95.303-9.33 1.871-16.359 10.106-16.359 19.986v7.636c0 8.336 5.009 15.492 12.175 18.652l16.236 284.771c.474 8.322 8.115 14.851 17.38 14.851h164.491c9.24 0 16.87-6.495 17.377-14.794l17.393-284.723c7.285-3.109 12.392-10.336 12.392-18.757v-7.636c0-11.112-8.893-20.13-19.949-20.366z" fill="#f9fbfc"/><path d="m317.303 483.946h-125.394c-7.063 0-12.887-4.588-13.249-10.435l-14.628-236.485h182.194l-15.676 236.525c-.387 5.831-6.203 10.395-13.247 10.395z" fill="#e9c278"/><g fill="#f9fbfc"><path d="m246.057 237.23c-1.69 0-3.06 1.37-3.06 3.06s1.37 3.06 3.06 3.06 3.06-1.37 3.06-3.06-1.37-3.06-3.06-3.06z"/><path d="m256.292 246.722c-1.69 0-3.06 1.37-3.06 3.06s1.37 3.061 3.06 3.061c.478 0 .924-.12 1.326-.315l.461-5.221c-.504-.364-1.118-.585-1.787-.585z"/><path d="m246.057 256.957c-1.69 0-3.06 1.37-3.06 3.06s1.37 3.061 3.06 3.061 3.06-1.37 3.06-3.061c0-1.69-1.37-3.06-3.06-3.06z"/><path d="m246.057 276.685c-1.69 0-3.06 1.37-3.06 3.059 0 1.691 1.37 3.061 3.06 3.061s3.06-1.37 3.06-3.061c0-1.689-1.37-3.059-3.06-3.059z"/><path d="m246.057 296.412c-1.69 0-3.06 1.37-3.06 3.06s1.37 3.061 3.06 3.061 3.06-1.37 3.06-3.061c0-1.69-1.37-3.06-3.06-3.06z"/><path d="m246.057 316.14c-1.69 0-3.06 1.37-3.06 3.061 0 1.689 1.37 3.06 3.06 3.06s3.06-1.37 3.06-3.06c0-1.691-1.37-3.061-3.06-3.061z"/><path d="m246.057 335.867c-1.69 0-3.06 1.37-3.06 3.06s1.37 3.06 3.06 3.06 3.06-1.37 3.06-3.06-1.37-3.06-3.06-3.06z"/><path d="m236.564 246.722c-1.69 0-3.06 1.37-3.06 3.06s1.37 3.061 3.06 3.061 3.06-1.37 3.06-3.061c0-1.69-1.37-3.06-3.06-3.06z"/><path d="m236.564 272.57c1.69 0 3.06-1.37 3.06-3.06s-1.37-3.06-3.06-3.06-3.06 1.37-3.06 3.06 1.37 3.06 3.06 3.06z"/><path d="m236.564 312.025c1.69 0 3.06-1.37 3.06-3.06s-1.37-3.06-3.06-3.06-3.06 1.37-3.06 3.06 1.37 3.06 3.06 3.06z"/><path d="m226.329 316.14c-1.69 0-3.06 1.37-3.06 3.061 0 1.689 1.37 3.06 3.06 3.06s3.06-1.37 3.06-3.06c0-1.691-1.37-3.061-3.06-3.061z"/><path d="m236.564 331.752c1.69 0 3.06-1.37 3.06-3.06s-1.37-3.06-3.06-3.06-3.06 1.37-3.06 3.06 1.37 3.06 3.06 3.06z"/><path d="m226.329 375.323c-1.69 0-3.06 1.37-3.06 3.06s1.37 3.061 3.06 3.061 3.06-1.37 3.06-3.061c0-1.69-1.37-3.06-3.06-3.06z"/><path d="m236.564 390.936c1.69 0 3.06-1.37 3.06-3.061 0-1.689-1.37-3.059-3.06-3.059s-3.06 1.37-3.06 3.059c0 1.691 1.37 3.061 3.06 3.061z"/><path d="m226.329 395.051c-1.69 0-3.06 1.37-3.06 3.06 0 1.691 1.37 3.061 3.06 3.061s3.06-1.37 3.06-3.061c0-1.69-1.37-3.06-3.06-3.06z"/><path d="m226.329 414.778c-1.69 0-3.06 1.37-3.06 3.061 0 1.689 1.37 3.06 3.06 3.06s3.06-1.37 3.06-3.06c0-1.691-1.37-3.061-3.06-3.061z"/><path d="m236.564 430.391c1.69 0 3.06-1.37 3.06-3.06 0-1.691-1.37-3.061-3.06-3.061s-3.06 1.37-3.06 3.061c0 1.69 1.37 3.06 3.06 3.06z"/><path d="m216.837 384.816c-1.69 0-3.06 1.37-3.06 3.059 0 1.691 1.37 3.061 3.06 3.061s3.06-1.37 3.06-3.061c0-1.689-1.37-3.059-3.06-3.059z"/><path d="m216.837 404.543c-1.69 0-3.06 1.37-3.06 3.061 0 1.689 1.37 3.06 3.06 3.06s3.06-1.37 3.06-3.06c0-1.691-1.37-3.061-3.06-3.061z"/></g><circle cx="294.493" cy="449.798" fill="#31373d" r="25.604"/><circle cx="297.316" cy="366.691" fill="#31373d" r="25.604"/><g fill="#eaa895"><path d="m276.02 9.99c-1.69 0-3.06 1.369-3.06 3.06 0 1.689 1.37 3.06 3.06 3.06 1.077 0 2.019-.559 2.564-1.398.067-1.477-.223-2.892-.804-4.158-.498-.353-1.104-.564-1.76-.564z"/><path d="m265.784 20.225c-1.69 0-3.06 1.37-3.06 3.06s1.37 3.059 3.06 3.059 3.06-1.37 3.06-3.059c.001-1.69-1.37-3.06-3.06-3.06z"/><path d="m265.784 39.953c-1.69 0-3.06 1.37-3.06 3.06 0 1.691 1.37 3.061 3.06 3.061s3.06-1.37 3.06-3.061c.001-1.69-1.37-3.06-3.06-3.06z"/><path d="m265.784 59.68c-1.69 0-3.06 1.37-3.06 3.06 0 1.691 1.37 3.06 3.06 3.06s3.06-1.37 3.06-3.06c.001-1.69-1.37-3.06-3.06-3.06z"/><path d="m265.784 79.408c-1.69 0-3.06 1.37-3.06 3.06 0 1.691 1.37 3.061 3.06 3.061s3.06-1.37 3.06-3.061c.001-1.69-1.37-3.06-3.06-3.06z"/><path d="m265.784 99.135c-1.69 0-3.06 1.37-3.06 3.061 0 1.69 1.37 3.06 3.06 3.06s3.06-1.37 3.06-3.06c.001-1.691-1.37-3.061-3.06-3.061z"/><path d="m265.784 118.863c-1.69 0-3.06 1.37-3.06 3.061 0 1.69 1.37 3.06 3.06 3.06s3.06-1.37 3.06-3.06c.001-1.691-1.37-3.061-3.06-3.061z"/><path d="m262.724 141.651c0 1.691 1.37 3.061 3.06 3.061.499 0 .962-.131 1.378-.343l.455-5.154c-.512-.386-1.142-.623-1.833-.623-1.69-.001-3.06 1.369-3.06 3.059z"/><path d="m256.292 9.99c-1.69 0-3.06 1.369-3.06 3.06 0 1.689 1.37 3.06 3.06 3.06s3.06-1.37 3.06-3.06c0-1.691-1.37-3.06-3.06-3.06z"/><path d="m256.292 29.718c-1.69 0-3.06 1.37-3.06 3.06s1.37 3.061 3.06 3.061 3.06-1.37 3.06-3.061c0-1.69-1.37-3.06-3.06-3.06z"/><path d="m246.057 46.073c1.69 0 3.06-1.37 3.06-3.061 0-1.69-1.37-3.06-3.06-3.06-1.031 0-1.938.513-2.492 1.294l-.27 3.062c.488 1.041 1.537 1.765 2.762 1.765z"/><path d="m256.292 49.445c-1.69 0-3.06 1.37-3.06 3.06s1.37 3.061 3.06 3.061 3.06-1.37 3.06-3.061c0-1.69-1.37-3.06-3.06-3.06z"/><path d="m246.057 59.68c-1.69 0-3.06 1.37-3.06 3.06 0 1.691 1.37 3.06 3.06 3.06s3.06-1.37 3.06-3.06-1.37-3.06-3.06-3.06z"/><path d="m256.292 69.173c-1.69 0-3.06 1.37-3.06 3.06s1.37 3.061 3.06 3.061 3.06-1.37 3.06-3.061c0-1.69-1.37-3.06-3.06-3.06z"/><path d="m246.057 79.408c-1.69 0-3.06 1.37-3.06 3.06 0 1.691 1.37 3.061 3.06 3.061s3.06-1.37 3.06-3.061c0-1.69-1.37-3.06-3.06-3.06z"/><path d="m256.292 88.9c-1.69 0-3.06 1.37-3.06 3.061 0 1.689 1.37 3.06 3.06 3.06s3.06-1.37 3.06-3.06c0-1.691-1.37-3.061-3.06-3.061z"/><path d="m246.057 99.135c-1.69 0-3.06 1.37-3.06 3.061 0 1.69 1.37 3.06 3.06 3.06s3.06-1.37 3.06-3.06c0-1.691-1.37-3.061-3.06-3.061z"/><path d="m256.292 108.628c-1.69 0-3.06 1.37-3.06 3.061 0 1.689 1.37 3.06 3.06 3.06s3.06-1.37 3.06-3.06c0-1.691-1.37-3.061-3.06-3.061z"/><path d="m246.057 118.863c-1.69 0-3.06 1.37-3.06 3.061 0 1.69 1.37 3.06 3.06 3.06s3.06-1.37 3.06-3.06c0-1.691-1.37-3.061-3.06-3.061z"/><path d="m256.292 128.356c-1.69 0-3.06 1.369-3.06 3.06s1.37 3.06 3.06 3.06 3.06-1.369 3.06-3.06-1.37-3.06-3.06-3.06z"/><path d="m246.057 138.591c-1.69 0-3.06 1.37-3.06 3.059 0 1.691 1.37 3.061 3.06 3.061s3.06-1.37 3.06-3.061c0-1.689-1.37-3.059-3.06-3.059z"/><path d="m256.292 148.084c-1.69 0-3.06 1.37-3.06 3.06 0 1.691 1.37 3.061 3.06 3.061s3.06-1.37 3.06-3.061c0-1.69-1.37-3.06-3.06-3.06z"/><path d="m256.292 207.266c-1.69 0-3.06 1.37-3.06 3.061 0 1.689 1.37 3.059 3.06 3.059s3.06-1.37 3.06-3.059c0-1.691-1.37-3.061-3.06-3.061z"/><path d="m246.057 217.501c-1.69 0-3.06 1.37-3.06 3.061 0 1.69 1.37 3.06 3.06 3.06s3.06-1.37 3.06-3.06c0-1.691-1.37-3.061-3.06-3.061z"/><path d="m256.292 226.995c-1.69 0-3.06 1.369-3.06 3.06 0 1.689 1.37 3.06 3.06 3.06s3.06-1.37 3.06-3.06c0-1.691-1.37-3.06-3.06-3.06z"/><path d="m236.564 154.204c1.69 0 3.06-1.37 3.06-3.061 0-1.69-1.37-3.06-3.06-3.06-1.064 0-2 .544-2.548 1.368l-.257 2.911c.472 1.083 1.549 1.842 2.805 1.842z"/><path d="m236.564 207.266c-1.69 0-3.06 1.37-3.06 3.061 0 1.689 1.37 3.059 3.06 3.059s3.06-1.37 3.06-3.059c0-1.691-1.37-3.061-3.06-3.061z"/><path d="m236.564 226.995c-1.69 0-3.06 1.369-3.06 3.06 0 1.689 1.37 3.06 3.06 3.06s3.06-1.37 3.06-3.06c0-1.691-1.37-3.06-3.06-3.06z"/></g><path d="m367.334 156.239c-8.257-45.946-43.698-82.569-89.022-92.563l4.256-48.229c.305-3.47-.761-6.85-3-9.519-2.238-2.669-5.382-4.305-8.85-4.608l-14.466-1.268c-3.467-.308-6.85.76-9.519 3-2.669 2.238-4.305 5.382-4.609 8.849l-4.422 50.118c-50.021 6.79-89.988 45.646-98.475 95.117-9.761 3.194-16.835 12.382-16.835 23.196v7.636c0 8.258 4.128 15.567 10.425 19.985l17.993 283.666c.595 10.451 9.989 18.637 21.387 18.637h164.491c11.354 0 20.748-8.154 21.383-18.536l19.28-283.705c6.347-4.41 10.514-11.75 10.514-20.048v-7.636c-.001-12.137-8.91-22.231-20.531-24.092zm-8.246-.31h-88.916l7.428-84.179c41.118 9.49 73.3 42.577 81.488 84.179zm-108.967-143.324c.118-1.334.747-2.542 1.772-3.403.91-.764 2.037-1.173 3.212-1.173.148 0 .297.007.446.02l14.467 1.268c1.333.117 2.541.746 3.401 1.771.861 1.025 1.27 2.325 1.154 3.655l-4.189 47.474c-5.557-.822-11.24-1.255-17.023-1.255-2.529 0-5.038.085-7.527.246zm-5.005 56.721c2.723-.208 5.468-.335 8.243-.335 5.548 0 10.991.446 16.314 1.258l-7.56 85.68h-24.639zm-8.141.933-7.56 85.669h-81.808c8.699-44.219 44.529-78.798 89.368-85.669zm113.084 420.944c-.378 6.182-6.251 11.025-13.371 11.025h-164.491c-7.144 0-13.018-4.861-13.373-11.091l-17.725-279.444c1.829.439 3.735.678 5.696.678h77.639l-1.821 20.641h-58.581c-1.107 0-2.166.458-2.924 1.265-.758.806-1.151 1.891-1.082 2.997l14.629 236.485c.492 7.964 8.071 14.201 17.255 14.201h125.394c9.149 0 16.727-6.212 17.252-14.143l15.676-236.525c.074-1.108-.315-2.197-1.074-3.009-.759-.811-1.821-1.271-2.931-1.271h-82.857l1.821-20.641h98.271c1.924 0 3.793-.23 5.59-.654zm-94.748-258.191h-24.639l1.821-20.641h24.639zm-.708 8.028-9.463 107.243c-2.459-10.721-11.663-18.892-22.892-19.789l2.137-24.223c9.791-3.599 16.794-13.017 16.794-24.042 0-9.423-5.12-17.668-12.721-22.113l1.507-17.077h24.638zm-16.542 187.457-.672 7.62c-4.545-7.158-12.537-11.923-21.626-11.923-.663 0-1.318.033-1.969.083l3.952-44.786c.804.076 1.618.12 2.442.12 10.565 0 19.655-6.434 23.562-15.588l-2.086 23.645c-7.28 4.52-12.14 12.584-12.14 21.765.001 7.566 3.302 14.373 8.537 19.064zm-22.486-122.664c.206 0 .409-.011.614-.016l-2.057 23.316c-11.203 2.729-19.546 12.843-19.546 24.874 0 10.447 6.293 19.447 15.284 23.424l-4.314 48.892c-9.051 3.951-15.395 12.984-15.395 23.474 0 14.118 11.486 25.604 25.603 25.604 11.042 0 20.472-7.026 24.058-16.841 2.443-2.138 4.105-5.176 4.41-8.658l1.471-16.671c2.919 1.16 6.098 1.805 9.426 1.805 14.118 0 25.604-11.486 25.604-25.604s-11.486-25.604-25.604-25.604c-1.75 0-3.459.177-5.112.513l5.902-66.88c4.342 7.978 12.802 13.406 22.507 13.406 14.118 0 25.604-11.486 25.604-25.604s-11.486-25.604-25.604-25.604c-8.101 0-15.33 3.786-20.025 9.677l4.262-48.297h79.275l-15.393 232.245c-.243 3.665-4.388 6.646-9.241 6.646h-125.395c-4.869 0-9.015-2.992-9.242-6.669l-14.365-232.221h53.603l-1.244 14.094c-1.644-.332-3.345-.509-5.086-.509-14.118 0-25.604 11.486-25.604 25.604.001 14.118 11.486 25.604 25.604 25.604zm164.261-117.865c0 9.029-7.345 16.375-16.374 16.375h-216.667c-9.029 0-16.375-7.346-16.375-16.375v-7.636c0-9.029 7.346-16.375 16.375-16.375h216.666c9.029 0 16.374 7.346 16.374 16.375v7.636z" fill="#31373d"/></g></svg>