<svg id="Capa_1" enable-background="new 0 0 511.205 511.205" height="512" viewBox="0 0 511.205 511.205" width="512" xmlns="http://www.w3.org/2000/svg"><g><path d="m488.37 159.56c25.821-28.48 24.994-72.518-2.486-99.998-25.569-25.569-65.469-28.057-93.838-7.48-3.422-9.439-8.902-18.3-16.471-25.869-27.627-27.627-72.42-27.627-100.047 0s-27.628 72.42 0 100.047c24.6 24.6 95.12 102.815 118.646 126.341 25.856 25.856 67.777 25.856 93.633 0 25.662-25.662 25.841-67.142.563-93.041z" fill="#eaa895"/><g fill="#f9fbfc"><path d="m505.728 96.727c-.302-.099-.618-.166-.953-.166-1.693 0-3.065 1.373-3.065 3.065 0 1.693 1.372 3.065 3.065 3.065.675 0 1.294-.225 1.801-.595-.219-1.798-.496-3.589-.848-5.369z"/><path d="m504.774 116.323c-1.693 0-3.065 1.372-3.065 3.065s1.372 3.065 3.065 3.065c.536 0 1.033-.15 1.471-.392.253-1.633.465-3.271.607-4.915-.546-.506-1.273-.823-2.078-.823z"/><path d="m504.774 195.372c-1.693 0-3.065 1.372-3.065 3.066 0 1.693 1.372 3.066 3.065 3.066.864 0 1.642-.361 2.199-.936-.124-1.572-.306-3.14-.542-4.703-.478-.309-1.045-.493-1.657-.493z"/><path d="m504.774 215.134c-1.693 0-3.065 1.372-3.065 3.065s1.372 3.065 3.065 3.065c.205 0 .405-.022.598-.06.439-1.841.808-3.696 1.087-5.562-.483-.32-1.061-.508-1.685-.508z"/><path d="m495.265 72.676c.317 0 .616-.062.904-.151-1.022-1.639-2.13-3.239-3.296-4.81-.415.523-.673 1.176-.673 1.895 0 1.694 1.372 3.066 3.065 3.066z"/><path d="m485.012 76.799c-1.693 0-3.066 1.372-3.066 3.065s1.373 3.065 3.066 3.065 3.065-1.372 3.065-3.065-1.372-3.065-3.065-3.065z"/><path d="m475.501 86.253c-1.693 0-3.065 1.372-3.065 3.065s1.372 3.065 3.065 3.065 3.065-1.372 3.065-3.065c.001-1.692-1.372-3.065-3.065-3.065z"/><path d="m495.265 92.438c1.693 0 3.065-1.372 3.065-3.065s-1.372-3.065-3.065-3.065-3.065 1.372-3.065 3.065 1.372 3.065 3.065 3.065z"/><path d="m485.012 96.56c-1.693 0-3.066 1.373-3.066 3.065 0 1.693 1.373 3.065 3.066 3.065s3.065-1.372 3.065-3.065c0-1.692-1.372-3.065-3.065-3.065z"/><path d="m495.265 112.201c1.693 0 3.065-1.373 3.065-3.065 0-1.693-1.372-3.065-3.065-3.065s-3.065 1.372-3.065 3.065c0 1.692 1.372 3.065 3.065 3.065z"/><path d="m485.012 116.323c-1.693 0-3.066 1.372-3.066 3.065s1.373 3.065 3.066 3.065 3.065-1.372 3.065-3.065-1.372-3.065-3.065-3.065z"/><path d="m495.265 131.962c1.693 0 3.065-1.372 3.065-3.065s-1.372-3.065-3.065-3.065-3.065 1.373-3.065 3.065c0 1.693 1.372 3.065 3.065 3.065z"/><path d="m485.012 136.085c-1.693 0-3.066 1.372-3.066 3.065s1.373 3.065 3.066 3.065 3.065-1.372 3.065-3.065-1.372-3.065-3.065-3.065z"/><path d="m495.265 145.594c-1.693 0-3.065 1.373-3.065 3.065 0 1.462 1.026 2.681 2.395 2.987 1.09-1.6 2.098-3.239 3.045-4.903-.562-.695-1.411-1.149-2.375-1.149z"/><path d="m485.012 155.847c-1.693 0-3.066 1.373-3.066 3.065 0 1.693 1.373 3.065 3.066 3.065s3.065-1.372 3.065-3.065c0-1.692-1.372-3.065-3.065-3.065z"/><path d="m492.2 168.422c0 1.693 1.372 3.066 3.065 3.066.728 0 1.388-.265 1.914-.689-1.067-1.711-2.223-3.381-3.461-5.009-.904.533-1.518 1.506-1.518 2.632z"/><path d="m485.012 175.609c-1.693 0-3.066 1.372-3.066 3.065s1.373 3.066 3.066 3.066 3.065-1.372 3.065-3.066c0-1.692-1.372-3.065-3.065-3.065z"/><path d="m495.265 185.119c-1.693 0-3.065 1.372-3.065 3.065s1.372 3.066 3.065 3.066 3.065-1.372 3.065-3.066c.001-1.693-1.372-3.065-3.065-3.065z"/><path d="m485.012 195.372c-1.693 0-3.066 1.372-3.066 3.066 0 1.693 1.373 3.066 3.066 3.066s3.065-1.373 3.065-3.066c0-1.694-1.372-3.066-3.065-3.066z"/><path d="m495.265 204.881c-1.693 0-3.065 1.372-3.065 3.065s1.372 3.065 3.065 3.065 3.065-1.372 3.065-3.065c.001-1.693-1.372-3.065-3.065-3.065z"/><path d="m485.012 215.134c-1.693 0-3.066 1.372-3.066 3.065s1.373 3.065 3.066 3.065 3.065-1.372 3.065-3.065-1.372-3.065-3.065-3.065z"/><path d="m495.265 224.643c-1.693 0-3.065 1.372-3.065 3.065s1.372 3.065 3.065 3.065 3.065-1.372 3.065-3.065c.001-1.693-1.372-3.065-3.065-3.065z"/><circle cx="475.503" cy="109.135" r="3.065"/><path d="m465.25 116.323c-1.693 0-3.065 1.372-3.065 3.065s1.372 3.065 3.065 3.065 3.065-1.372 3.065-3.065-1.372-3.065-3.065-3.065z"/><circle cx="475.503" cy="128.897" r="3.065"/><path d="m465.25 136.085c-1.693 0-3.065 1.372-3.065 3.065s1.372 3.065 3.065 3.065 3.065-1.372 3.065-3.065-1.372-3.065-3.065-3.065z"/><circle cx="475.503" cy="148.659" r="3.065"/><path d="m465.25 155.847c-1.693 0-3.065 1.373-3.065 3.065 0 1.693 1.372 3.065 3.065 3.065s3.065-1.372 3.065-3.065c0-1.692-1.372-3.065-3.065-3.065z"/><path d="m475.503 165.356c-1.693 0-3.065 1.372-3.065 3.065s1.373 3.066 3.065 3.066c1.693 0 3.065-1.373 3.065-3.066 0-1.692-1.372-3.065-3.065-3.065z"/><path d="m465.25 175.609c-1.693 0-3.065 1.372-3.065 3.065s1.372 3.066 3.065 3.066 3.065-1.372 3.065-3.066c0-1.692-1.372-3.065-3.065-3.065z"/><path d="m475.503 185.119c-1.693 0-3.065 1.372-3.065 3.065s1.373 3.066 3.065 3.066c1.693 0 3.065-1.372 3.065-3.066 0-1.693-1.372-3.065-3.065-3.065z"/><path d="m465.25 195.372c-1.693 0-3.065 1.372-3.065 3.066 0 1.693 1.372 3.066 3.065 3.066s3.065-1.373 3.065-3.066c0-1.694-1.372-3.066-3.065-3.066z"/><path d="m475.503 204.881c-1.693 0-3.065 1.372-3.065 3.065s1.373 3.065 3.065 3.065c1.693 0 3.065-1.372 3.065-3.065s-1.372-3.065-3.065-3.065z"/><circle cx="455.741" cy="128.897" r="3.065"/><path d="m445.488 136.085c-1.693 0-3.065 1.372-3.065 3.065s1.372 3.065 3.065 3.065 3.065-1.372 3.065-3.065-1.373-3.065-3.065-3.065z"/><circle cx="455.741" cy="148.659" r="3.065"/><path d="m445.488 155.847c-1.693 0-3.065 1.373-3.065 3.065 0 1.693 1.372 3.065 3.065 3.065s3.065-1.372 3.065-3.065c0-1.692-1.373-3.065-3.065-3.065z"/><path d="m455.741 165.356c-1.693 0-3.065 1.372-3.065 3.065s1.372 3.066 3.065 3.066 3.065-1.373 3.065-3.066c0-1.692-1.372-3.065-3.065-3.065z"/><path d="m445.488 175.609c-1.693 0-3.065 1.372-3.065 3.065s1.372 3.066 3.065 3.066 3.065-1.372 3.065-3.066c0-1.692-1.373-3.065-3.065-3.065z"/><path d="m455.741 185.119c-1.693 0-3.065 1.372-3.065 3.065s1.372 3.066 3.065 3.066 3.065-1.372 3.065-3.066c0-1.693-1.372-3.065-3.065-3.065z"/><path d="m435.979 145.594c-1.693 0-3.066 1.373-3.066 3.065 0 1.693 1.372 3.065 3.066 3.065 1.693 0 3.065-1.372 3.065-3.065 0-1.692-1.373-3.065-3.065-3.065z"/><path d="m425.725 155.847c-1.693 0-3.065 1.373-3.065 3.065 0 1.693 1.372 3.065 3.065 3.065s3.065-1.372 3.065-3.065c.001-1.692-1.372-3.065-3.065-3.065z"/><path d="m435.979 165.356c-1.693 0-3.066 1.372-3.066 3.065s1.372 3.066 3.066 3.066c1.693 0 3.065-1.373 3.065-3.066 0-1.692-1.373-3.065-3.065-3.065z"/><path d="m425.725 175.609c-1.693 0-3.065 1.372-3.065 3.065s1.372 3.066 3.065 3.066 3.065-1.372 3.065-3.066c.001-1.692-1.372-3.065-3.065-3.065z"/><path d="m435.979 185.119c-1.693 0-3.066 1.372-3.066 3.065s1.372 3.066 3.066 3.066c1.693 0 3.065-1.372 3.065-3.066 0-1.693-1.373-3.065-3.065-3.065z"/><path d="m416.216 145.594c-1.693 0-3.065 1.373-3.065 3.065 0 1.693 1.372 3.065 3.065 3.065s3.065-1.372 3.065-3.065c.001-1.692-1.372-3.065-3.065-3.065z"/><path d="m425.727 136.139c-1.693 0-3.066 1.373-3.066 3.065 0 1.693 1.372 3.065 3.066 3.065 1.693 0 3.065-1.372 3.065-3.065.001-1.692-1.372-3.065-3.065-3.065z"/><path d="m386.23 155.944c-1.693 0-3.065 1.373-3.065 3.065 0 1.693 1.372 3.066 3.065 3.066s3.065-1.372 3.065-3.066c0-1.692-1.373-3.065-3.065-3.065z"/><path d="m405.963 155.847c-1.693 0-3.065 1.373-3.065 3.065 0 1.693 1.372 3.065 3.065 3.065s3.065-1.372 3.065-3.065c0-1.692-1.372-3.065-3.065-3.065z"/><path d="m416.216 165.356c-1.693 0-3.065 1.372-3.065 3.065s1.372 3.066 3.065 3.066 3.065-1.373 3.065-3.066c.001-1.692-1.372-3.065-3.065-3.065z"/><path d="m406.506 175.664v6.021c1.433-.257 2.522-1.504 2.522-3.011 0-1.506-1.089-2.752-2.522-3.01z"/><path d="m396.454 165.356c-1.693 0-3.065 1.372-3.065 3.065s1.372 3.066 3.065 3.066 3.065-1.373 3.065-3.066c0-1.692-1.372-3.065-3.065-3.065z"/></g><path d="m499.704 233.103c-41.851-38.143-92.712-60.904-145.316-68.29-7.373-52.516-30.072-103.294-68.099-145.106-4.806-5.285-13.045-5.506-18.096-.455l-264.178 264.181v169.165c-.103 6.533-.121 10.687 0 10.687v42.427h49.16 192.068l254.907-254.908c4.941-4.941 4.718-12.994-.446-17.701z" fill="#e9c278"/><g fill="#f9fbfc"><path d="m485.012 234.896c-1.693 0-3.066 1.372-3.066 3.065s1.373 3.065 3.066 3.065 3.065-1.372 3.065-3.065-1.372-3.065-3.065-3.065z"/><path d="m492.2 247.471c0 1.693 1.372 3.065 3.065 3.065s3.065-1.372 3.065-3.065-1.372-3.066-3.065-3.066-3.065 1.373-3.065 3.066z"/><path d="m485.012 254.658c-1.693 0-3.066 1.372-3.066 3.066 0 1.693 1.373 3.065 3.066 3.065s3.065-1.373 3.065-3.065c0-1.693-1.372-3.066-3.065-3.066z"/><path d="m465.25 215.134c-1.693 0-3.065 1.372-3.065 3.065s1.372 3.065 3.065 3.065 3.065-1.372 3.065-3.065-1.372-3.065-3.065-3.065z"/><path d="m475.503 224.643c-1.693 0-3.065 1.372-3.065 3.065s1.373 3.065 3.065 3.065c1.693 0 3.065-1.372 3.065-3.065s-1.372-3.065-3.065-3.065z"/><path d="m465.25 234.896c-1.693 0-3.065 1.372-3.065 3.065s1.372 3.065 3.065 3.065 3.065-1.372 3.065-3.065-1.372-3.065-3.065-3.065z"/><path d="m475.503 244.405c-1.693 0-3.065 1.372-3.065 3.066 0 1.693 1.373 3.065 3.065 3.065 1.693 0 3.065-1.372 3.065-3.065s-1.372-3.066-3.065-3.066z"/><path d="m465.25 254.658c-1.693 0-3.065 1.372-3.065 3.066 0 1.693 1.372 3.065 3.065 3.065s3.065-1.373 3.065-3.065c0-1.693-1.372-3.066-3.065-3.066z"/><path d="m475.503 264.167c-1.693 0-3.065 1.373-3.065 3.065 0 1.693 1.373 3.065 3.065 3.065 1.693 0 3.065-1.372 3.065-3.065 0-1.692-1.372-3.065-3.065-3.065z"/><path d="m465.25 274.42c-1.693 0-3.065 1.373-3.065 3.066s1.372 3.065 3.065 3.065 3.065-1.372 3.065-3.065-1.372-3.066-3.065-3.066z"/><path d="m445.488 195.372c-1.693 0-3.065 1.372-3.065 3.066 0 1.693 1.372 3.066 3.065 3.066s3.065-1.373 3.065-3.066c0-1.694-1.373-3.066-3.065-3.066z"/><path d="m455.741 204.881c-1.693 0-3.065 1.372-3.065 3.065s1.372 3.065 3.065 3.065 3.065-1.372 3.065-3.065-1.372-3.065-3.065-3.065z"/><path d="m445.488 215.134c-1.693 0-3.065 1.372-3.065 3.065s1.372 3.065 3.065 3.065 3.065-1.372 3.065-3.065-1.373-3.065-3.065-3.065z"/><path d="m455.741 224.643c-1.693 0-3.065 1.372-3.065 3.065s1.372 3.065 3.065 3.065 3.065-1.372 3.065-3.065-1.372-3.065-3.065-3.065z"/><path d="m445.488 234.896c-1.693 0-3.065 1.372-3.065 3.065s1.372 3.065 3.065 3.065 3.065-1.372 3.065-3.065-1.373-3.065-3.065-3.065z"/><path d="m455.741 244.405c-1.693 0-3.065 1.372-3.065 3.066 0 1.693 1.372 3.065 3.065 3.065s3.065-1.372 3.065-3.065-1.372-3.066-3.065-3.066z"/><path d="m445.488 254.658c-1.693 0-3.065 1.372-3.065 3.066 0 1.693 1.372 3.065 3.065 3.065s3.065-1.373 3.065-3.065c0-1.693-1.373-3.066-3.065-3.066z"/><path d="m455.741 264.167c-1.693 0-3.065 1.373-3.065 3.065 0 1.693 1.372 3.065 3.065 3.065s3.065-1.372 3.065-3.065c0-1.692-1.372-3.065-3.065-3.065z"/><path d="m445.488 274.42c-1.693 0-3.065 1.373-3.065 3.066s1.372 3.065 3.065 3.065 3.065-1.372 3.065-3.065-1.373-3.066-3.065-3.066z"/><path d="m455.741 283.93c-1.693 0-3.065 1.372-3.065 3.066 0 1.693 1.372 3.065 3.065 3.065s3.065-1.372 3.065-3.065c0-1.694-1.372-3.066-3.065-3.066z"/><path d="m445.488 294.183c-1.693 0-3.065 1.373-3.065 3.065 0 1.693 1.372 3.065 3.065 3.065s3.065-1.372 3.065-3.065-1.373-3.065-3.065-3.065z"/><path d="m425.725 195.372c-1.693 0-3.065 1.372-3.065 3.066 0 1.693 1.372 3.066 3.065 3.066s3.065-1.373 3.065-3.066c.001-1.694-1.372-3.066-3.065-3.066z"/><path d="m435.979 204.881c-1.693 0-3.066 1.372-3.066 3.065s1.372 3.065 3.066 3.065c1.693 0 3.065-1.372 3.065-3.065s-1.373-3.065-3.065-3.065z"/><path d="m425.725 215.134c-1.693 0-3.065 1.372-3.065 3.065s1.372 3.065 3.065 3.065 3.065-1.372 3.065-3.065c.001-1.693-1.372-3.065-3.065-3.065z"/><path d="m435.979 224.643c-1.693 0-3.066 1.372-3.066 3.065s1.372 3.065 3.066 3.065c1.693 0 3.065-1.372 3.065-3.065s-1.373-3.065-3.065-3.065z"/><path d="m425.725 234.896c-1.693 0-3.065 1.372-3.065 3.065s1.372 3.065 3.065 3.065 3.065-1.372 3.065-3.065c.001-1.693-1.372-3.065-3.065-3.065z"/><path d="m435.979 244.405c-1.693 0-3.066 1.372-3.066 3.066 0 1.693 1.372 3.065 3.066 3.065 1.693 0 3.065-1.372 3.065-3.065s-1.373-3.066-3.065-3.066z"/><path d="m425.725 254.658c-1.693 0-3.065 1.372-3.065 3.066 0 1.693 1.372 3.065 3.065 3.065s3.065-1.373 3.065-3.065c.001-1.693-1.372-3.066-3.065-3.066z"/><path d="m435.979 264.167c-1.693 0-3.066 1.373-3.066 3.065 0 1.693 1.372 3.065 3.066 3.065 1.693 0 3.065-1.372 3.065-3.065 0-1.692-1.373-3.065-3.065-3.065z"/><path d="m425.725 274.42c-1.693 0-3.065 1.373-3.065 3.066s1.372 3.065 3.065 3.065 3.065-1.372 3.065-3.065c.001-1.693-1.372-3.066-3.065-3.066z"/><path d="m435.979 283.93c-1.693 0-3.066 1.372-3.066 3.066 0 1.693 1.372 3.065 3.066 3.065 1.693 0 3.065-1.372 3.065-3.065 0-1.694-1.373-3.066-3.065-3.066z"/><path d="m425.725 294.183c-1.693 0-3.065 1.373-3.065 3.065 0 1.693 1.372 3.065 3.065 3.065s3.065-1.372 3.065-3.065c.001-1.693-1.372-3.065-3.065-3.065z"/><path d="m435.979 303.692c-1.693 0-3.066 1.372-3.066 3.065s1.372 3.066 3.066 3.066c1.693 0 3.065-1.373 3.065-3.066s-1.373-3.065-3.065-3.065z"/><path d="m425.725 313.945c-1.693 0-3.065 1.372-3.065 3.065s1.372 3.065 3.065 3.065 3.065-1.373 3.065-3.065c.001-1.693-1.372-3.065-3.065-3.065z"/><path d="m416.216 185.119c-1.693 0-3.065 1.372-3.065 3.065s1.372 3.066 3.065 3.066 3.065-1.372 3.065-3.066c.001-1.693-1.372-3.065-3.065-3.065z"/><circle cx="405.963" cy="198.437" r="3.065"/><path d="m416.216 204.881c-1.693 0-3.065 1.372-3.065 3.065s1.372 3.065 3.065 3.065 3.065-1.372 3.065-3.065c.001-1.693-1.372-3.065-3.065-3.065z"/><path d="m405.963 215.134c-1.693 0-3.065 1.372-3.065 3.065s1.372 3.065 3.065 3.065 3.065-1.372 3.065-3.065-1.372-3.065-3.065-3.065z"/><path d="m416.216 224.643c-1.693 0-3.065 1.372-3.065 3.065s1.372 3.065 3.065 3.065 3.065-1.372 3.065-3.065c.001-1.693-1.372-3.065-3.065-3.065z"/><path d="m405.963 234.896c-1.693 0-3.065 1.372-3.065 3.065s1.372 3.065 3.065 3.065 3.065-1.372 3.065-3.065-1.372-3.065-3.065-3.065z"/><path d="m416.216 244.405c-1.693 0-3.065 1.372-3.065 3.066 0 1.693 1.372 3.065 3.065 3.065s3.065-1.372 3.065-3.065c.001-1.693-1.372-3.066-3.065-3.066z"/><path d="m405.963 254.658c-1.693 0-3.065 1.372-3.065 3.066 0 1.693 1.372 3.065 3.065 3.065s3.065-1.373 3.065-3.065c0-1.693-1.372-3.066-3.065-3.066z"/><path d="m416.216 264.167c-1.693 0-3.065 1.373-3.065 3.065 0 1.693 1.372 3.065 3.065 3.065s3.065-1.372 3.065-3.065c.001-1.692-1.372-3.065-3.065-3.065z"/><path d="m405.963 274.42c-1.693 0-3.065 1.373-3.065 3.066s1.372 3.065 3.065 3.065 3.065-1.372 3.065-3.065-1.372-3.066-3.065-3.066z"/><path d="m416.216 283.93c-1.693 0-3.065 1.372-3.065 3.066 0 1.693 1.372 3.065 3.065 3.065s3.065-1.372 3.065-3.065c.001-1.694-1.372-3.066-3.065-3.066z"/><path d="m405.963 294.183c-1.693 0-3.065 1.373-3.065 3.065 0 1.693 1.372 3.065 3.065 3.065s3.065-1.372 3.065-3.065-1.372-3.065-3.065-3.065z"/><path d="m416.216 303.692c-1.693 0-3.065 1.372-3.065 3.065s1.372 3.066 3.065 3.066 3.065-1.373 3.065-3.066c.001-1.693-1.372-3.065-3.065-3.065z"/><circle cx="405.963" cy="317.011" r="3.065"/><path d="m416.216 323.454c-1.693 0-3.065 1.372-3.065 3.065s1.372 3.065 3.065 3.065 3.065-1.372 3.065-3.065c.001-1.692-1.372-3.065-3.065-3.065z"/><path d="m405.963 333.708c-1.693 0-3.065 1.372-3.065 3.065s1.372 3.065 3.065 3.065 3.065-1.372 3.065-3.065-1.372-3.065-3.065-3.065z"/><path d="m386.201 175.609c-1.693 0-3.065 1.372-3.065 3.065s1.372 3.066 3.065 3.066 3.065-1.372 3.065-3.066c0-1.692-1.372-3.065-3.065-3.065z"/><path d="m396.454 185.119c-1.693 0-3.065 1.372-3.065 3.065s1.372 3.066 3.065 3.066 3.065-1.372 3.065-3.066c0-1.693-1.372-3.065-3.065-3.065z"/><path d="m386.201 195.372c-1.693 0-3.065 1.372-3.065 3.066 0 1.693 1.372 3.066 3.065 3.066s3.065-1.373 3.065-3.066c0-1.694-1.372-3.066-3.065-3.066z"/><path d="m396.454 204.881c-1.693 0-3.065 1.372-3.065 3.065s1.372 3.065 3.065 3.065 3.065-1.372 3.065-3.065-1.372-3.065-3.065-3.065z"/><path d="m386.201 215.134c-1.693 0-3.065 1.372-3.065 3.065s1.372 3.065 3.065 3.065 3.065-1.372 3.065-3.065-1.372-3.065-3.065-3.065z"/><path d="m396.454 224.643c-1.693 0-3.065 1.372-3.065 3.065s1.372 3.065 3.065 3.065 3.065-1.372 3.065-3.065-1.372-3.065-3.065-3.065z"/><path d="m386.201 234.896c-1.693 0-3.065 1.372-3.065 3.065s1.372 3.065 3.065 3.065 3.065-1.372 3.065-3.065-1.372-3.065-3.065-3.065z"/><path d="m396.454 244.405c-1.693 0-3.065 1.372-3.065 3.066 0 1.693 1.372 3.065 3.065 3.065s3.065-1.372 3.065-3.065-1.372-3.066-3.065-3.066z"/><path d="m386.201 254.658c-1.693 0-3.065 1.372-3.065 3.066 0 1.693 1.372 3.065 3.065 3.065s3.065-1.373 3.065-3.065c0-1.693-1.372-3.066-3.065-3.066z"/><path d="m396.454 264.167c-1.693 0-3.065 1.373-3.065 3.065 0 1.693 1.372 3.065 3.065 3.065s3.065-1.372 3.065-3.065c0-1.692-1.372-3.065-3.065-3.065z"/><path d="m386.201 274.42c-1.693 0-3.065 1.373-3.065 3.066s1.372 3.065 3.065 3.065 3.065-1.372 3.065-3.065-1.372-3.066-3.065-3.066z"/><path d="m396.454 283.93c-1.693 0-3.065 1.372-3.065 3.066 0 1.693 1.372 3.065 3.065 3.065s3.065-1.372 3.065-3.065c0-1.694-1.372-3.066-3.065-3.066z"/><path d="m386.201 294.183c-1.693 0-3.065 1.373-3.065 3.065 0 1.693 1.372 3.065 3.065 3.065s3.065-1.372 3.065-3.065-1.372-3.065-3.065-3.065z"/><path d="m396.454 303.692c-1.693 0-3.065 1.372-3.065 3.065s1.372 3.066 3.065 3.066 3.065-1.373 3.065-3.066-1.372-3.065-3.065-3.065z"/><path d="m386.201 313.945c-1.693 0-3.065 1.372-3.065 3.065s1.372 3.065 3.065 3.065 3.065-1.373 3.065-3.065c0-1.693-1.372-3.065-3.065-3.065z"/><path d="m396.454 323.454c-1.693 0-3.065 1.372-3.065 3.065s1.372 3.065 3.065 3.065 3.065-1.372 3.065-3.065c0-1.692-1.372-3.065-3.065-3.065z"/><path d="m386.201 333.708c-1.693 0-3.065 1.372-3.065 3.065s1.372 3.065 3.065 3.065 3.065-1.372 3.065-3.065-1.372-3.065-3.065-3.065z"/><path d="m396.454 343.216c-1.693 0-3.065 1.372-3.065 3.065s1.372 3.065 3.065 3.065 3.065-1.372 3.065-3.065c0-1.692-1.372-3.065-3.065-3.065z"/><path d="m386.201 353.469c-1.693 0-3.065 1.373-3.065 3.065 0 1.693 1.372 3.065 3.065 3.065s3.065-1.372 3.065-3.065c0-1.692-1.372-3.065-3.065-3.065z"/><path d="m366.439 175.609c-1.693 0-3.065 1.372-3.065 3.065s1.373 3.066 3.065 3.066c1.693 0 3.065-1.372 3.065-3.066 0-1.692-1.372-3.065-3.065-3.065z"/><path d="m376.692 185.119c-1.693 0-3.065 1.372-3.065 3.065s1.373 3.066 3.065 3.066c1.693 0 3.065-1.372 3.065-3.066 0-1.693-1.372-3.065-3.065-3.065z"/><circle cx="366.439" cy="198.437" r="3.066"/><path d="m376.692 204.881c-1.693 0-3.065 1.372-3.065 3.065s1.373 3.065 3.065 3.065c1.693 0 3.065-1.372 3.065-3.065s-1.372-3.065-3.065-3.065z"/><path d="m366.439 215.134c-1.693 0-3.065 1.372-3.065 3.065s1.373 3.065 3.065 3.065c1.693 0 3.065-1.372 3.065-3.065s-1.372-3.065-3.065-3.065z"/><path d="m376.692 224.643c-1.693 0-3.065 1.372-3.065 3.065s1.373 3.065 3.065 3.065c1.693 0 3.065-1.372 3.065-3.065s-1.372-3.065-3.065-3.065z"/><path d="m366.439 234.896c-1.693 0-3.065 1.372-3.065 3.065s1.373 3.065 3.065 3.065c1.693 0 3.065-1.372 3.065-3.065s-1.372-3.065-3.065-3.065z"/><path d="m376.692 244.405c-1.693 0-3.065 1.372-3.065 3.066 0 1.693 1.373 3.065 3.065 3.065 1.693 0 3.065-1.372 3.065-3.065s-1.372-3.066-3.065-3.066z"/><path d="m366.439 254.658c-1.693 0-3.065 1.372-3.065 3.066 0 1.693 1.373 3.065 3.065 3.065 1.693 0 3.065-1.373 3.065-3.065 0-1.693-1.372-3.066-3.065-3.066z"/><path d="m376.692 264.167c-1.693 0-3.065 1.373-3.065 3.065 0 1.693 1.373 3.065 3.065 3.065 1.693 0 3.065-1.372 3.065-3.065 0-1.692-1.372-3.065-3.065-3.065z"/><path d="m366.439 274.42c-1.693 0-3.065 1.373-3.065 3.066s1.373 3.065 3.065 3.065c1.693 0 3.065-1.372 3.065-3.065s-1.372-3.066-3.065-3.066z"/><path d="m376.692 283.93c-1.693 0-3.065 1.372-3.065 3.066 0 1.693 1.373 3.065 3.065 3.065 1.693 0 3.065-1.372 3.065-3.065 0-1.694-1.372-3.066-3.065-3.066z"/><path d="m366.439 294.183c-1.693 0-3.065 1.373-3.065 3.065 0 1.693 1.373 3.065 3.065 3.065 1.693 0 3.065-1.372 3.065-3.065s-1.372-3.065-3.065-3.065z"/><path d="m376.692 303.692c-1.693 0-3.065 1.372-3.065 3.065s1.373 3.066 3.065 3.066c1.693 0 3.065-1.373 3.065-3.066s-1.372-3.065-3.065-3.065z"/><circle cx="366.439" cy="317.011" r="3.065"/><path d="m376.692 323.454c-1.693 0-3.065 1.372-3.065 3.065s1.373 3.065 3.065 3.065c1.693 0 3.065-1.372 3.065-3.065 0-1.692-1.372-3.065-3.065-3.065z"/><path d="m366.439 333.708c-1.693 0-3.065 1.372-3.065 3.065s1.373 3.065 3.065 3.065c1.693 0 3.065-1.372 3.065-3.065s-1.372-3.065-3.065-3.065z"/><path d="m376.692 343.216c-1.693 0-3.065 1.372-3.065 3.065s1.373 3.065 3.065 3.065c1.693 0 3.065-1.372 3.065-3.065 0-1.692-1.372-3.065-3.065-3.065z"/><circle cx="366.439" cy="356.535" r="3.065"/><path d="m376.692 362.979c-1.693 0-3.065 1.372-3.065 3.066 0 1.693 1.373 3.065 3.065 3.065 1.693 0 3.065-1.373 3.065-3.065 0-1.694-1.372-3.066-3.065-3.066z"/><path d="m366.439 373.232c-1.693 0-3.065 1.372-3.065 3.065s1.373 3.065 3.065 3.065c1.693 0 3.065-1.372 3.065-3.065s-1.372-3.065-3.065-3.065z"/><path d="m356.93 244.405c-1.693 0-3.066 1.372-3.066 3.066 0 1.693 1.372 3.065 3.066 3.065 1.693 0 3.065-1.372 3.065-3.065s-1.373-3.066-3.065-3.066z"/><path d="m356.93 264.167c-1.693 0-3.066 1.373-3.066 3.065 0 1.693 1.372 3.065 3.066 3.065 1.693 0 3.065-1.372 3.065-3.065 0-1.692-1.373-3.065-3.065-3.065z"/><path d="m356.93 283.93c-1.693 0-3.066 1.372-3.066 3.066 0 1.693 1.372 3.065 3.066 3.065 1.693 0 3.065-1.372 3.065-3.065 0-1.694-1.373-3.066-3.065-3.066z"/><path d="m346.676 294.183c-1.693 0-3.065 1.373-3.065 3.065 0 1.693 1.372 3.065 3.065 3.065s3.066-1.372 3.066-3.065-1.373-3.065-3.066-3.065z"/><path d="m356.93 303.692c-1.693 0-3.066 1.372-3.066 3.065s1.372 3.066 3.066 3.066c1.693 0 3.065-1.373 3.065-3.066s-1.373-3.065-3.065-3.065z"/><path d="m346.676 313.945c-1.693 0-3.065 1.372-3.065 3.065s1.372 3.065 3.065 3.065 3.066-1.373 3.066-3.065c0-1.693-1.373-3.065-3.066-3.065z"/><path d="m356.93 323.454c-1.693 0-3.066 1.372-3.066 3.065s1.372 3.065 3.066 3.065c1.693 0 3.065-1.372 3.065-3.065 0-1.692-1.373-3.065-3.065-3.065z"/><path d="m346.676 333.708c-1.693 0-3.065 1.372-3.065 3.065s1.372 3.065 3.065 3.065 3.066-1.372 3.066-3.065-1.373-3.065-3.066-3.065z"/><path d="m356.93 343.216c-1.693 0-3.066 1.372-3.066 3.065s1.372 3.065 3.066 3.065c1.693 0 3.065-1.372 3.065-3.065 0-1.692-1.373-3.065-3.065-3.065z"/><path d="m346.676 353.469c-1.693 0-3.065 1.373-3.065 3.065 0 1.693 1.372 3.065 3.065 3.065s3.066-1.372 3.066-3.065c0-1.692-1.373-3.065-3.066-3.065z"/><path d="m356.93 362.979c-1.693 0-3.066 1.372-3.066 3.066 0 1.693 1.372 3.065 3.066 3.065 1.693 0 3.065-1.373 3.065-3.065 0-1.694-1.373-3.066-3.065-3.066z"/><path d="m346.676 373.232c-1.693 0-3.065 1.372-3.065 3.065s1.372 3.065 3.065 3.065 3.066-1.372 3.066-3.065-1.373-3.065-3.066-3.065z"/><path d="m356.93 382.741c-1.693 0-3.066 1.373-3.066 3.066s1.372 3.065 3.066 3.065c1.693 0 3.065-1.372 3.065-3.065 0-1.694-1.373-3.066-3.065-3.066z"/><path d="m346.676 392.994c-1.693 0-3.065 1.372-3.065 3.065s1.372 3.065 3.065 3.065 3.066-1.372 3.066-3.065-1.373-3.065-3.066-3.065z"/><path d="m337.167 323.454c-1.693 0-3.065 1.372-3.065 3.065s1.372 3.065 3.065 3.065 3.066-1.372 3.066-3.065c0-1.692-1.373-3.065-3.066-3.065z"/><path d="m326.914 333.708c-1.693 0-3.065 1.372-3.065 3.065s1.372 3.065 3.065 3.065 3.065-1.372 3.065-3.065c.001-1.693-1.372-3.065-3.065-3.065z"/><path d="m337.167 343.216c-1.693 0-3.065 1.372-3.065 3.065s1.372 3.065 3.065 3.065 3.066-1.372 3.066-3.065c0-1.692-1.373-3.065-3.066-3.065z"/><path d="m326.914 353.469c-1.693 0-3.065 1.373-3.065 3.065 0 1.693 1.372 3.065 3.065 3.065s3.065-1.372 3.065-3.065c.001-1.692-1.372-3.065-3.065-3.065z"/><path d="m337.167 362.979c-1.693 0-3.065 1.372-3.065 3.066 0 1.693 1.372 3.065 3.065 3.065s3.066-1.373 3.066-3.065c0-1.694-1.373-3.066-3.066-3.066z"/><path d="m326.914 373.232c-1.693 0-3.065 1.372-3.065 3.065s1.372 3.065 3.065 3.065 3.065-1.372 3.065-3.065c.001-1.693-1.372-3.065-3.065-3.065z"/><path d="m337.167 382.741c-1.693 0-3.065 1.373-3.065 3.066s1.372 3.065 3.065 3.065 3.066-1.372 3.066-3.065c0-1.694-1.373-3.066-3.066-3.066z"/><path d="m326.914 392.994c-1.693 0-3.065 1.372-3.065 3.065s1.372 3.065 3.065 3.065 3.065-1.372 3.065-3.065c.001-1.693-1.372-3.065-3.065-3.065z"/><path d="m337.167 402.503c-1.693 0-3.065 1.373-3.065 3.065 0 1.693 1.372 3.065 3.065 3.065s3.066-1.372 3.066-3.065c0-1.692-1.373-3.065-3.066-3.065z"/><path d="m326.914 412.756c-1.693 0-3.065 1.373-3.065 3.065 0 1.693 1.372 3.065 3.065 3.065s3.065-1.372 3.065-3.065c.001-1.692-1.372-3.065-3.065-3.065z"/><path d="m317.405 362.979c-1.693 0-3.065 1.372-3.065 3.066 0 1.693 1.372 3.065 3.065 3.065s3.065-1.373 3.065-3.065c0-1.694-1.372-3.066-3.065-3.066z"/><path d="m307.152 373.232c-1.693 0-3.065 1.372-3.065 3.065s1.372 3.065 3.065 3.065 3.066-1.372 3.066-3.065c-.001-1.693-1.373-3.065-3.066-3.065z"/><path d="m317.405 382.741c-1.693 0-3.065 1.373-3.065 3.066s1.372 3.065 3.065 3.065 3.065-1.372 3.065-3.065c0-1.694-1.372-3.066-3.065-3.066z"/><path d="m307.152 392.994c-1.693 0-3.065 1.372-3.065 3.065s1.372 3.065 3.065 3.065 3.066-1.372 3.066-3.065c-.001-1.693-1.373-3.065-3.066-3.065z"/><circle cx="317.405" cy="405.568" r="3.065"/><path d="m307.152 412.756c-1.693 0-3.065 1.373-3.065 3.065 0 1.693 1.372 3.065 3.065 3.065s3.066-1.372 3.066-3.065c-.001-1.692-1.373-3.065-3.066-3.065z"/><path d="m317.405 422.265c-1.693 0-3.065 1.372-3.065 3.065s1.372 3.065 3.065 3.065 3.065-1.373 3.065-3.065-1.372-3.065-3.065-3.065z"/><path d="m307.152 432.518c-1.693 0-3.065 1.372-3.065 3.065s1.372 3.066 3.065 3.066 3.066-1.372 3.066-3.066c-.001-1.692-1.373-3.065-3.066-3.065z"/><path d="m297.643 382.741c-1.693 0-3.065 1.373-3.065 3.066s1.372 3.065 3.065 3.065 3.065-1.372 3.065-3.065c0-1.694-1.372-3.066-3.065-3.066z"/><path d="m287.39 392.994c-1.693 0-3.065 1.372-3.065 3.065s1.372 3.065 3.065 3.065 3.065-1.372 3.065-3.065-1.372-3.065-3.065-3.065z"/><path d="m297.643 402.503c-1.693 0-3.065 1.373-3.065 3.065 0 1.693 1.372 3.065 3.065 3.065s3.065-1.372 3.065-3.065c0-1.692-1.372-3.065-3.065-3.065z"/><path d="m287.39 412.756c-1.693 0-3.065 1.373-3.065 3.065 0 1.693 1.372 3.065 3.065 3.065s3.065-1.372 3.065-3.065c0-1.692-1.372-3.065-3.065-3.065z"/><path d="m297.643 422.265c-1.693 0-3.065 1.372-3.065 3.065s1.372 3.065 3.065 3.065 3.065-1.373 3.065-3.065-1.372-3.065-3.065-3.065z"/><path d="m287.39 432.518c-1.693 0-3.065 1.372-3.065 3.065s1.372 3.066 3.065 3.066 3.065-1.372 3.065-3.066c0-1.692-1.372-3.065-3.065-3.065z"/><path d="m297.643 442.028c-1.693 0-3.065 1.372-3.065 3.065s1.372 3.065 3.065 3.065 3.065-1.372 3.065-3.065-1.372-3.065-3.065-3.065z"/><path d="m287.39 452.281c-1.693 0-3.065 1.372-3.065 3.065s1.372 3.065 3.065 3.065 3.065-1.373 3.065-3.065c0-1.693-1.372-3.065-3.065-3.065z"/><path d="m277.881 402.503c-1.693 0-3.065 1.373-3.065 3.065 0 1.693 1.372 3.065 3.065 3.065s3.065-1.372 3.065-3.065c0-1.692-1.372-3.065-3.065-3.065z"/><path d="m267.628 412.756c-1.693 0-3.065 1.373-3.065 3.065 0 1.693 1.372 3.065 3.065 3.065s3.065-1.372 3.065-3.065c0-1.692-1.373-3.065-3.065-3.065z"/><path d="m277.881 422.265c-1.693 0-3.065 1.372-3.065 3.065s1.372 3.065 3.065 3.065 3.065-1.373 3.065-3.065-1.372-3.065-3.065-3.065z"/><path d="m267.628 432.518c-1.693 0-3.065 1.372-3.065 3.065s1.372 3.066 3.065 3.066 3.065-1.372 3.065-3.066c0-1.692-1.373-3.065-3.065-3.065z"/><path d="m277.881 442.028c-1.693 0-3.065 1.372-3.065 3.065s1.372 3.065 3.065 3.065 3.065-1.372 3.065-3.065-1.372-3.065-3.065-3.065z"/><path d="m267.628 452.281c-1.693 0-3.065 1.372-3.065 3.065s1.372 3.065 3.065 3.065 3.065-1.373 3.065-3.065c0-1.693-1.373-3.065-3.065-3.065z"/><path d="m277.881 461.79c-1.693 0-3.065 1.373-3.065 3.065 0 1.693 1.372 3.065 3.065 3.065s3.065-1.372 3.065-3.065-1.372-3.065-3.065-3.065z"/><path d="m267.628 472.043c-1.693 0-3.065 1.372-3.065 3.065s1.372 3.065 3.065 3.065 3.065-1.372 3.065-3.065c0-1.692-1.373-3.065-3.065-3.065z"/><path d="m258.118 422.265c-1.693 0-3.065 1.372-3.065 3.065s1.373 3.065 3.065 3.065c1.693 0 3.066-1.373 3.066-3.065s-1.373-3.065-3.066-3.065z"/><path d="m247.865 432.518c-1.693 0-3.065 1.372-3.065 3.065s1.372 3.066 3.065 3.066 3.065-1.372 3.065-3.066c.001-1.692-1.372-3.065-3.065-3.065z"/><path d="m258.118 442.028c-1.693 0-3.065 1.372-3.065 3.065s1.373 3.065 3.065 3.065c1.693 0 3.066-1.372 3.066-3.065s-1.373-3.065-3.066-3.065z"/><path d="m247.865 452.281c-1.693 0-3.065 1.372-3.065 3.065s1.372 3.065 3.065 3.065 3.065-1.373 3.065-3.065c.001-1.693-1.372-3.065-3.065-3.065z"/><path d="m258.118 461.79c-1.693 0-3.065 1.373-3.065 3.065 0 1.693 1.373 3.065 3.065 3.065 1.693 0 3.066-1.372 3.066-3.065s-1.373-3.065-3.066-3.065z"/><path d="m247.865 472.043c-1.693 0-3.065 1.372-3.065 3.065s1.372 3.065 3.065 3.065 3.065-1.372 3.065-3.065c.001-1.692-1.372-3.065-3.065-3.065z"/><path d="m258.118 481.552c-1.693 0-3.065 1.372-3.065 3.065s1.373 3.066 3.065 3.066c1.693 0 3.066-1.372 3.066-3.066 0-1.693-1.373-3.065-3.066-3.065z"/><path d="m247.865 491.805c-1.693 0-3.065 1.372-3.065 3.065s1.372 3.065 3.065 3.065 3.065-1.372 3.065-3.065c.001-1.693-1.372-3.065-3.065-3.065z"/><path d="m238.356 442.028c-1.693 0-3.065 1.372-3.065 3.065s1.372 3.065 3.065 3.065 3.065-1.372 3.065-3.065c.001-1.693-1.372-3.065-3.065-3.065z"/><path d="m228.103 452.281c-1.693 0-3.065 1.372-3.065 3.065s1.373 3.065 3.065 3.065c1.693 0 3.065-1.373 3.065-3.065 0-1.693-1.372-3.065-3.065-3.065z"/><path d="m238.356 461.79c-1.693 0-3.065 1.373-3.065 3.065 0 1.693 1.372 3.065 3.065 3.065s3.065-1.372 3.065-3.065c.001-1.693-1.372-3.065-3.065-3.065z"/><path d="m228.103 472.043c-1.693 0-3.065 1.372-3.065 3.065s1.373 3.065 3.065 3.065c1.693 0 3.065-1.372 3.065-3.065 0-1.692-1.372-3.065-3.065-3.065z"/><path d="m238.356 481.552c-1.693 0-3.065 1.372-3.065 3.065s1.372 3.066 3.065 3.066 3.065-1.372 3.065-3.066c.001-1.693-1.372-3.065-3.065-3.065z"/><path d="m228.103 491.805c-1.693 0-3.065 1.372-3.065 3.065s1.373 3.065 3.065 3.065c1.693 0 3.065-1.372 3.065-3.065s-1.372-3.065-3.065-3.065z"/><path d="m241.422 504.38c0-1.693-1.372-3.065-3.065-3.065s-3.065 1.372-3.065 3.065c0 .479.12.927.316 1.332h5.498c.196-.405.316-.853.316-1.332z"/><path d="m218.594 442.028c-1.693 0-3.065 1.372-3.065 3.065s1.373 3.065 3.065 3.065c1.693 0 3.066-1.372 3.066-3.065-.001-1.693-1.373-3.065-3.066-3.065z"/><path d="m208.341 452.281c-1.693 0-3.065 1.372-3.065 3.065s1.372 3.065 3.065 3.065 3.066-1.373 3.066-3.065c-.001-1.693-1.373-3.065-3.066-3.065z"/><path d="m218.594 461.79c-1.693 0-3.065 1.373-3.065 3.065 0 1.693 1.373 3.065 3.065 3.065 1.693 0 3.066-1.372 3.066-3.065-.001-1.693-1.373-3.065-3.066-3.065z"/><path d="m208.341 472.043c-1.693 0-3.065 1.372-3.065 3.065s1.372 3.065 3.065 3.065 3.066-1.372 3.066-3.065c-.001-1.692-1.373-3.065-3.066-3.065z"/><path d="m218.594 481.552c-1.693 0-3.065 1.372-3.065 3.065s1.373 3.066 3.065 3.066c1.693 0 3.066-1.372 3.066-3.066-.001-1.693-1.373-3.065-3.066-3.065z"/><path d="m208.341 491.805c-1.693 0-3.065 1.372-3.065 3.065s1.372 3.065 3.065 3.065 3.066-1.372 3.066-3.065c-.001-1.693-1.373-3.065-3.066-3.065z"/><path d="m221.659 504.38c0-1.693-1.372-3.065-3.066-3.065-1.693 0-3.065 1.372-3.065 3.065 0 .479.12.927.316 1.332h5.499c.196-.405.316-.853.316-1.332z"/><path d="m198.832 461.79c-1.693 0-3.065 1.373-3.065 3.065 0 1.693 1.372 3.065 3.065 3.065s3.065-1.372 3.065-3.065-1.372-3.065-3.065-3.065z"/><path d="m188.579 472.043c-1.693 0-3.065 1.372-3.065 3.065s1.372 3.065 3.065 3.065 3.065-1.372 3.065-3.065c0-1.692-1.373-3.065-3.065-3.065z"/><path d="m198.832 481.552c-1.693 0-3.065 1.372-3.065 3.065s1.372 3.066 3.065 3.066 3.065-1.372 3.065-3.066c0-1.693-1.372-3.065-3.065-3.065z"/><path d="m188.579 491.805c-1.693 0-3.065 1.372-3.065 3.065s1.372 3.065 3.065 3.065 3.065-1.372 3.065-3.065-1.373-3.065-3.065-3.065z"/><path d="m201.897 504.38c0-1.693-1.372-3.065-3.065-3.065s-3.065 1.372-3.065 3.065c0 .479.12.927.316 1.332h5.499c.195-.405.315-.853.315-1.332z"/><path d="m179.069 461.79c-1.693 0-3.065 1.373-3.065 3.065 0 1.693 1.373 3.065 3.065 3.065 1.693 0 3.065-1.372 3.065-3.065.001-1.693-1.372-3.065-3.065-3.065z"/><path d="m168.816 472.043c-1.693 0-3.065 1.372-3.065 3.065s1.372 3.065 3.065 3.065 3.065-1.372 3.065-3.065c.001-1.692-1.372-3.065-3.065-3.065z"/><path d="m179.069 481.552c-1.693 0-3.065 1.372-3.065 3.065s1.373 3.066 3.065 3.066c1.693 0 3.065-1.372 3.065-3.066.001-1.693-1.372-3.065-3.065-3.065z"/><path d="m168.816 491.805c-1.693 0-3.065 1.372-3.065 3.065s1.372 3.065 3.065 3.065 3.065-1.372 3.065-3.065c.001-1.693-1.372-3.065-3.065-3.065z"/><path d="m182.135 504.38c0-1.693-1.373-3.065-3.065-3.065-1.693 0-3.065 1.372-3.065 3.065 0 .479.12.927.316 1.332h5.498c.196-.405.316-.853.316-1.332z"/><path d="m149.054 472.043c-1.693 0-3.066 1.372-3.066 3.065s1.372 3.065 3.066 3.065c1.693 0 3.065-1.372 3.065-3.065 0-1.692-1.372-3.065-3.065-3.065z"/><path d="m159.307 481.552c-1.693 0-3.065 1.372-3.065 3.065s1.372 3.066 3.065 3.066 3.065-1.372 3.065-3.066c.001-1.693-1.372-3.065-3.065-3.065z"/><path d="m149.054 491.805c-1.693 0-3.066 1.372-3.066 3.065s1.372 3.065 3.066 3.065c1.693 0 3.065-1.372 3.065-3.065s-1.372-3.065-3.065-3.065z"/><path d="m162.373 504.38c0-1.693-1.373-3.065-3.065-3.065-1.693 0-3.065 1.372-3.065 3.065 0 .479.12.927.316 1.332h5.499c.195-.405.315-.853.315-1.332z"/><path d="m129.292 472.043c-1.693 0-3.065 1.372-3.065 3.065s1.372 3.065 3.065 3.065 3.065-1.372 3.065-3.065c0-1.692-1.372-3.065-3.065-3.065z"/><path d="m139.545 481.552c-1.693 0-3.065 1.372-3.065 3.065s1.372 3.066 3.065 3.066 3.065-1.372 3.065-3.066c0-1.693-1.372-3.065-3.065-3.065z"/><path d="m129.292 497.936c1.693 0 3.065-1.372 3.065-3.065s-1.372-3.065-3.065-3.065-3.065 1.372-3.065 3.065c-.001 1.693 1.372 3.065 3.065 3.065z"/><path d="m142.61 504.38c0-1.693-1.372-3.065-3.065-3.065s-3.065 1.372-3.065 3.065c0 .479.12.927.316 1.332h5.498c.197-.405.316-.853.316-1.332z"/><path d="m119.783 481.552c-1.693 0-3.065 1.372-3.065 3.065s1.373 3.066 3.065 3.066 3.065-1.372 3.065-3.066c0-1.693-1.372-3.065-3.065-3.065z"/><path d="m109.53 491.805c-1.693 0-3.065 1.372-3.065 3.065s1.373 3.065 3.065 3.065c1.693 0 3.065-1.372 3.065-3.065s-1.372-3.065-3.065-3.065z"/><path d="m122.848 504.38c0-1.693-1.372-3.065-3.065-3.065s-3.065 1.372-3.065 3.065c0 .479.12.927.316 1.332h5.498c.196-.405.316-.853.316-1.332z"/><path d="m100.02 481.552c-1.693 0-3.065 1.372-3.065 3.065s1.372 3.066 3.065 3.066 3.065-1.372 3.065-3.066c.001-1.693-1.372-3.065-3.065-3.065z"/><path d="m89.767 497.936c1.693 0 3.065-1.372 3.065-3.065s-1.372-3.065-3.065-3.065-3.065 1.372-3.065 3.065 1.372 3.065 3.065 3.065z"/><path d="m103.086 504.38c0-1.693-1.373-3.065-3.065-3.065-1.693 0-3.065 1.372-3.065 3.065 0 .479.12.927.316 1.332h5.498c.196-.405.316-.853.316-1.332z"/><path d="m80.258 481.552c-1.693 0-3.066 1.372-3.066 3.065s1.373 3.066 3.066 3.066 3.065-1.372 3.065-3.066c.001-1.693-1.372-3.065-3.065-3.065z"/><path d="m70.005 491.805c-1.693 0-3.065 1.372-3.065 3.065s1.372 3.065 3.065 3.065 3.065-1.372 3.065-3.065-1.372-3.065-3.065-3.065z"/><path d="m83.324 504.38c0-1.693-1.373-3.065-3.065-3.065-1.693 0-3.066 1.372-3.066 3.065 0 .479.12.927.316 1.332h5.498c.197-.405.317-.853.317-1.332z"/><path d="m48.526 474.527c-.451-.004-.858-.072-1.246-.167-.061.241-.103.488-.103.748 0 1.693 1.372 3.065 3.065 3.065s3.065-1.372 3.065-3.065c0-.144-.023-.281-.042-.419-1.579-.083-3.159-.149-4.739-.162z"/><path d="m60.496 481.552c-1.693 0-3.066 1.372-3.066 3.065s1.373 3.066 3.066 3.066 3.065-1.372 3.065-3.066c0-1.693-1.372-3.065-3.065-3.065z"/><path d="m50.243 497.936c1.693 0 3.065-1.372 3.065-3.065s-1.373-3.065-3.065-3.065c-1.693 0-3.065 1.372-3.065 3.065-.001 1.693 1.372 3.065 3.065 3.065z"/><path d="m63.561 504.38c0-1.693-1.372-3.065-3.065-3.065s-3.066 1.372-3.066 3.065c0 .479.12.927.316 1.332h5.499c.197-.405.316-.853.316-1.332z"/><path d="m30.481 472.043c-1.693 0-3.066 1.372-3.066 3.065s1.372 3.065 3.066 3.065c1.693 0 3.065-1.372 3.065-3.065 0-1.692-1.372-3.065-3.065-3.065z"/><path d="m40.734 481.552c-1.693 0-3.065 1.372-3.065 3.065s1.373 3.066 3.065 3.066c1.693 0 3.065-1.372 3.065-3.066 0-1.693-1.372-3.065-3.065-3.065z"/><path d="m30.481 491.805c-1.693 0-3.066 1.372-3.066 3.065s1.372 3.065 3.066 3.065c1.693 0 3.065-1.372 3.065-3.065s-1.372-3.065-3.065-3.065z"/><path d="m43.799 504.38c0-1.693-1.373-3.065-3.065-3.065-1.693 0-3.065 1.372-3.065 3.065 0 .479.12.927.316 1.332h5.498c.196-.405.316-.853.316-1.332z"/><path d="m10.718 472.043c-1.693 0-3.065 1.372-3.065 3.065s1.372 3.065 3.065 3.065 3.065-1.372 3.065-3.065c.001-1.692-1.372-3.065-3.065-3.065z"/><path d="m20.972 481.552c-1.693 0-3.066 1.372-3.066 3.065s1.372 3.066 3.066 3.066 3.065-1.372 3.065-3.066c0-1.693-1.372-3.065-3.065-3.065z"/><path d="m10.718 497.936c1.693 0 3.065-1.372 3.065-3.065s-1.372-3.065-3.065-3.065-3.065 1.372-3.065 3.065 1.372 3.065 3.065 3.065z"/><path d="m24.037 504.38c0-1.693-1.372-3.065-3.065-3.065s-3.066 1.372-3.066 3.065c0 .479.12.927.316 1.332h5.499c.196-.405.316-.853.316-1.332z"/><path d="m4.015 483.388v2.458c.165-.377.26-.791.26-1.229 0-.437-.095-.852-.26-1.229z"/><path d="m4.015 503.151v2.458c.165-.377.26-.791.26-1.229s-.095-.853-.26-1.229z"/></g><g fill="#31373d"><path d="m511.204 206.192c.096-17.348-6.074-33.799-17.45-46.725 24.937-30.265 23.004-74.706-5.033-102.742-12.96-12.961-30.153-20.848-48.408-22.209-16.353-1.219-32.634 2.835-46.393 11.462-3.715-8.427-8.917-16.012-15.507-22.602-14.12-14.12-32.894-21.896-52.862-21.897-14.687 0-28.716 4.229-40.732 12.075-2.255-1.211-4.771-1.9-7.415-1.963-4.546-.125-8.829 1.604-12.047 4.823l-264.18 264.181c-1.568 1.568-1.568 4.108 0 5.676 1.566 1.567 4.109 1.567 5.675 0l264.179-264.18c1.652-1.652 3.855-2.536 6.182-2.475 2.352.056 4.52 1.047 6.107 2.793 96.532 106.138 92.611 268.816-8.925 370.354-70.572 70.572-173.723 96.123-269.198 66.687-2.122-.654-4.366.535-5.018 2.652-.654 2.118.534 4.365 2.652 5.018 13.259 4.088 26.659 7.14 40.1 9.193 1.546 10.211 3.66 20.375 6.367 30.441.481 1.792 2.102 2.972 3.872 2.972.346 0 .697-.045 1.046-.139 2.141-.576 3.409-2.778 2.833-4.918-2.423-9.005-4.344-18.092-5.805-27.22 11.165 1.361 22.345 2.047 33.485 2.047 72.214 0 142.615-28.33 195.341-81.057 50.59-50.59 79.329-117.828 80.923-189.33.298-13.372-.357-26.637-1.933-39.712 49.822 8.023 97.908 30.187 137.94 66.673 1.691 1.541 2.651 3.644 2.704 5.923.053 2.256-.798 4.377-2.393 5.973l-254.906 254.907c-1.568 1.568-1.568 4.108 0 5.676 1.566 1.567 4.109 1.567 5.675 0l254.907-254.908c3.162-3.161 4.846-7.364 4.742-11.835-.067-2.887-.88-5.625-2.33-8.022 3.744-8.599 5.752-17.942 5.805-27.592zm-153.26-44.918c-7.935-52.644-30.901-101.873-66.833-142.18 10.289-6.234 22.1-9.588 34.44-9.588 17.824.001 34.581 6.942 47.186 19.545 6.965 6.966 12.192 15.175 15.535 24.399.43 1.185 1.391 2.099 2.596 2.469 1.206.37 2.513.153 3.534-.588 27.394-19.87 64.675-16.898 88.643 7.07 25.879 25.879 26.912 67.372 2.351 94.464-1.425 1.572-1.38 3.981.102 5.499 17.196 17.619 21.75 43.137 13.767 64.964-40.141-35.493-89.055-58.169-141.321-66.054z"/><path d="m144.65 398.383c-5.364 0-10.727-2.041-14.81-6.125-8.167-8.167-8.166-21.454 0-29.621 3.956-3.956 9.215-6.135 14.81-6.135 5.594 0 10.854 2.179 14.81 6.135 8.166 8.166 8.167 21.454 0 29.62-4.083 4.085-9.446 6.126-14.81 6.126zm0-33.853c-3.451 0-6.695 1.344-9.135 3.784-5.036 5.037-5.036 13.232 0 18.27 5.036 5.035 13.232 5.037 18.27-.001 5.036-5.037 5.036-13.232 0-18.269-2.441-2.44-5.685-3.784-9.135-3.784z"/><path d="m244.333 276.327c-5.594 0-10.854-2.179-14.809-6.135-3.957-3.956-6.136-9.215-6.136-14.81s2.179-10.855 6.136-14.811c8.165-8.167 21.454-8.166 29.62 0 8.167 8.166 8.166 21.454 0 29.621-3.956 3.956-9.216 6.135-14.811 6.135zm0-33.858c-3.308 0-6.616 1.259-9.134 3.778-2.44 2.44-3.784 5.684-3.784 9.135s1.344 6.694 3.784 9.134 5.684 3.784 9.134 3.784c3.451 0 6.695-1.344 9.135-3.784 5.036-5.037 5.036-13.232 0-18.27v.001c-2.518-2.519-5.826-3.778-9.135-3.778z"/><circle cx="151.677" cy="243.669" r="11.226"/><circle cx="268.799" cy="115.356" r="11.226"/><circle cx="197.745" cy="407.639" r="11.226"/></g></g></svg>