<svg id="Capa_1" enable-background="new 0 0 510.854 510.854" height="512" viewBox="0 0 510.854 510.854" width="512" xmlns="http://www.w3.org/2000/svg"><g><path d="m169.383 204.457h26.405l-80.777-129.008c-3.28-5.239-10.185-6.827-15.423-3.546-5.238 3.279-6.826 10.185-3.546 15.423z" fill="#eaa895"/><path d="m248.169 212.001-50.924-199.556c-1.528-5.989-7.621-9.606-13.61-8.076-5.988 1.528-9.604 7.622-8.075 13.609l49.511 194.023z" fill="#eaa895"/><path d="m310.078 174.89c-35.126 0-66.818 14.681-89.29 38.236-14.772-9.273-32.236-14.65-50.964-14.65-44.507 0-81.937 30.281-92.826 71.362h112.977 72.675 167.532c-12.851-54.435-61.744-94.948-120.104-94.948z" fill="#e9c278"/><path d="m323.906 506.84h-136.958c-7.591 0-13.744-6.154-13.744-13.744v-3.272c0-7.591 6.153-13.744 13.744-13.744h136.958c7.591 0 13.744 6.153 13.744 13.744v3.271c0 7.592-6.153 13.745-13.744 13.745z" fill="#eaa895"/><path d="m449.565 267.27c8.244 0 14.718 7.014 14.125 15.236-7.803 108.21-81.391 193.574-208.263 193.574s-200.46-85.364-208.263-193.574c-.593-8.223 5.882-15.236 14.125-15.236z" fill="#eaa895"/><g fill="#f9fbfc"><g><path d="m455.081 268.977c-1.719 0-3.113 1.394-3.113 3.113s1.394 3.113 3.113 3.113 3.113-1.393 3.113-3.113c0-1.719-1.394-3.113-3.113-3.113z"/><path d="m455.081 289.047c-1.719 0-3.113 1.394-3.113 3.113s1.394 3.113 3.113 3.113 3.113-1.393 3.113-3.113c0-1.719-1.394-3.113-3.113-3.113z"/><path d="m455.081 309.117c-1.719 0-3.113 1.394-3.113 3.113s1.394 3.113 3.113 3.113 3.113-1.393 3.113-3.113c0-1.719-1.394-3.113-3.113-3.113z"/><path d="m435.011 268.977c-1.719 0-3.113 1.394-3.113 3.113s1.394 3.113 3.113 3.113 3.113-1.393 3.113-3.113c0-1.719-1.393-3.113-3.113-3.113z"/><path d="m445.424 278.634c-1.719 0-3.113 1.394-3.113 3.113s1.394 3.113 3.113 3.113 3.113-1.393 3.113-3.113c0-1.719-1.394-3.113-3.113-3.113z"/><path d="m435.011 289.047c-1.719 0-3.113 1.394-3.113 3.113s1.394 3.113 3.113 3.113 3.113-1.393 3.113-3.113c0-1.719-1.393-3.113-3.113-3.113z"/><path d="m445.424 298.704c-1.719 0-3.113 1.394-3.113 3.113s1.394 3.113 3.113 3.113 3.113-1.394 3.113-3.113-1.394-3.113-3.113-3.113z"/><path d="m435.011 309.117c-1.719 0-3.113 1.394-3.113 3.113s1.394 3.113 3.113 3.113 3.113-1.393 3.113-3.113c0-1.719-1.393-3.113-3.113-3.113z"/><path d="m445.424 318.774c-1.719 0-3.113 1.394-3.113 3.113s1.394 3.113 3.113 3.113 3.113-1.393 3.113-3.113c0-1.719-1.394-3.113-3.113-3.113z"/><path d="m431.908 372.339c-.001.034-.01.066-.01.1 0 1.719 1.394 3.113 3.113 3.113s3.113-1.393 3.113-3.113c0-.034-.009-.066-.01-.1z"/><path d="m414.942 268.977c-1.719 0-3.113 1.394-3.113 3.113s1.394 3.113 3.113 3.113 3.113-1.393 3.113-3.113c0-1.719-1.394-3.113-3.113-3.113z"/><path d="m425.354 278.634c-1.719 0-3.113 1.394-3.113 3.113s1.394 3.113 3.113 3.113 3.113-1.393 3.113-3.113c0-1.719-1.393-3.113-3.113-3.113z"/><path d="m414.942 289.047c-1.719 0-3.113 1.394-3.113 3.113s1.394 3.113 3.113 3.113 3.113-1.393 3.113-3.113c0-1.719-1.394-3.113-3.113-3.113z"/><path d="m425.354 298.704c-1.719 0-3.113 1.394-3.113 3.113s1.394 3.113 3.113 3.113 3.113-1.394 3.113-3.113-1.393-3.113-3.113-3.113z"/><path d="m414.942 309.117c-1.719 0-3.113 1.394-3.113 3.113s1.394 3.113 3.113 3.113 3.113-1.393 3.113-3.113c0-1.719-1.394-3.113-3.113-3.113z"/><path d="m425.354 318.774c-1.719 0-3.113 1.394-3.113 3.113s1.394 3.113 3.113 3.113 3.113-1.393 3.113-3.113c0-1.719-1.393-3.113-3.113-3.113z"/><path d="m411.839 372.339c-.001.034-.01.066-.01.1 0 1.719 1.394 3.113 3.113 3.113s3.113-1.393 3.113-3.113c0-.034-.009-.066-.01-.1z"/><path d="m425.354 378.983c-1.719 0-3.113 1.394-3.113 3.113s1.394 3.113 3.113 3.113 3.113-1.393 3.113-3.113c0-1.719-1.393-3.113-3.113-3.113z"/><path d="m416.986 390.178c-.548-.481-1.258-.783-2.044-.783s-1.496.301-2.044.783z"/><path d="m394.872 268.977c-1.719 0-3.113 1.394-3.113 3.113s1.394 3.113 3.113 3.113 3.113-1.393 3.113-3.113c0-1.719-1.394-3.113-3.113-3.113z"/><path d="m405.285 278.634c-1.719 0-3.113 1.394-3.113 3.113s1.394 3.113 3.113 3.113 3.113-1.393 3.113-3.113c0-1.719-1.394-3.113-3.113-3.113z"/><path d="m394.872 289.047c-1.719 0-3.113 1.394-3.113 3.113s1.394 3.113 3.113 3.113 3.113-1.393 3.113-3.113c0-1.719-1.394-3.113-3.113-3.113z"/><path d="m405.285 298.704c-1.719 0-3.113 1.394-3.113 3.113s1.394 3.113 3.113 3.113 3.113-1.394 3.113-3.113-1.394-3.113-3.113-3.113z"/><path d="m394.872 309.117c-1.719 0-3.113 1.394-3.113 3.113s1.394 3.113 3.113 3.113 3.113-1.393 3.113-3.113c0-1.719-1.394-3.113-3.113-3.113z"/><path d="m405.285 318.774c-1.719 0-3.113 1.394-3.113 3.113s1.394 3.113 3.113 3.113 3.113-1.393 3.113-3.113c0-1.719-1.394-3.113-3.113-3.113z"/><path d="m391.769 372.339c-.001.034-.01.066-.01.1 0 1.719 1.394 3.113 3.113 3.113s3.113-1.393 3.113-3.113c0-.034-.009-.066-.01-.1z"/><path d="m405.285 378.983c-1.719 0-3.113 1.394-3.113 3.113s1.394 3.113 3.113 3.113 3.113-1.393 3.113-3.113c0-1.719-1.394-3.113-3.113-3.113z"/><path d="m396.916 390.178c-.548-.481-1.258-.783-2.044-.783s-1.496.301-2.044.783z"/><path d="m394.872 409.465c-1.719 0-3.113 1.394-3.113 3.113s1.394 3.113 3.113 3.113 3.113-1.393 3.113-3.113c0-1.719-1.394-3.113-3.113-3.113z"/><path d="m385.215 318.774c-1.719 0-3.113 1.394-3.113 3.113s1.394 3.113 3.113 3.113 3.113-1.393 3.113-3.113c0-1.719-1.394-3.113-3.113-3.113z"/><path d="m371.699 372.339c-.001.034-.01.066-.01.1 0 1.719 1.394 3.113 3.113 3.113s3.113-1.393 3.113-3.113c0-.034-.009-.066-.01-.1z"/><path d="m385.215 378.983c-1.719 0-3.113 1.394-3.113 3.113s1.394 3.113 3.113 3.113 3.113-1.393 3.113-3.113c0-1.719-1.394-3.113-3.113-3.113z"/><path d="m376.846 390.178c-.548-.481-1.258-.783-2.044-.783s-1.496.301-2.044.783z"/><path d="m374.802 409.465c-1.719 0-3.113 1.394-3.113 3.113s1.394 3.113 3.113 3.113 3.113-1.393 3.113-3.113c0-1.719-1.394-3.113-3.113-3.113z"/><path d="m385.215 419.122c-1.719 0-3.113 1.394-3.113 3.113s1.394 3.113 3.113 3.113 3.113-1.393 3.113-3.113c0-1.718-1.394-3.113-3.113-3.113z"/><path d="m374.802 429.535c-1.719 0-3.113 1.394-3.113 3.113s1.394 3.113 3.113 3.113 3.113-1.393 3.113-3.113c0-1.719-1.394-3.113-3.113-3.113z"/><path d="m365.145 378.983c-1.719 0-3.113 1.394-3.113 3.113s1.394 3.113 3.113 3.113 3.113-1.393 3.113-3.113c0-1.719-1.394-3.113-3.113-3.113z"/><path d="m356.777 390.178c-.548-.481-1.258-.783-2.044-.783s-1.494.302-2.041.783z"/><path d="m354.732 409.465c-1.719 0-3.113 1.394-3.113 3.113s1.394 3.113 3.113 3.113 3.113-1.393 3.113-3.113c0-1.719-1.393-3.113-3.113-3.113z"/><path d="m365.145 419.122c-1.719 0-3.113 1.394-3.113 3.113s1.394 3.113 3.113 3.113 3.113-1.393 3.113-3.113c0-1.718-1.394-3.113-3.113-3.113z"/><path d="m354.732 429.535c-1.719 0-3.113 1.394-3.113 3.113s1.394 3.113 3.113 3.113 3.113-1.393 3.113-3.113c0-1.719-1.393-3.113-3.113-3.113z"/><path d="m365.145 439.192c-1.719 0-3.113 1.394-3.113 3.113s1.394 3.113 3.113 3.113 3.113-1.393 3.113-3.113c0-1.719-1.394-3.113-3.113-3.113z"/><path d="m354.732 449.605c-1.719 0-3.113 1.394-3.113 3.113 0 1.202.689 2.234 1.688 2.752 1.508-.716 3.003-1.449 4.483-2.199.032-.18.056-.364.056-.553-.001-1.719-1.394-3.113-3.114-3.113z"/><path d="m345.075 419.122c-1.719 0-3.113 1.394-3.113 3.113s1.394 3.113 3.113 3.113 3.113-1.393 3.113-3.113c.001-1.718-1.393-3.113-3.113-3.113z"/><path d="m334.663 429.535c-1.719 0-3.113 1.394-3.113 3.113s1.394 3.113 3.113 3.113 3.113-1.393 3.113-3.113c0-1.719-1.394-3.113-3.113-3.113z"/><path d="m336.068 410.115c-1.719 0-3.113 1.394-3.113 3.113s1.394 3.113 3.113 3.113 3.113-1.393 3.113-3.113c0-1.719-1.393-3.113-3.113-3.113z"/><path d="m325.656 420.528c-1.719 0-3.113 1.394-3.113 3.113s1.394 3.113 3.113 3.113 3.113-1.393 3.113-3.113c0-1.719-1.394-3.113-3.113-3.113z"/><path d="m345.075 439.192c-1.719 0-3.113 1.394-3.113 3.113s1.394 3.113 3.113 3.113 3.113-1.393 3.113-3.113c.001-1.719-1.393-3.113-3.113-3.113z"/><path d="m334.663 455.831c1.719 0 3.113-1.393 3.113-3.113 0-1.719-1.394-3.113-3.113-3.113s-3.113 1.394-3.113 3.113c0 1.72 1.393 3.113 3.113 3.113z"/><path d="m325.006 439.192c-1.719 0-3.113 1.394-3.113 3.113s1.394 3.113 3.113 3.113 3.113-1.393 3.113-3.113c0-1.719-1.394-3.113-3.113-3.113z"/><path d="m314.593 449.605c-1.719 0-3.113 1.394-3.113 3.113s1.394 3.113 3.113 3.113 3.113-1.393 3.113-3.113c0-1.719-1.394-3.113-3.113-3.113z"/><path d="m325.006 459.262c-1.719 0-3.113 1.394-3.113 3.113s1.394 3.113 3.113 3.113 3.113-1.393 3.113-3.113c0-1.719-1.394-3.113-3.113-3.113z"/><path d="m291.41 452.718c0 1.719 1.394 3.113 3.113 3.113s3.113-1.393 3.113-3.113c0-1.719-1.394-3.113-3.113-3.113s-3.113 1.394-3.113 3.113z"/><path d="m301.821 442.307c0 1.719 1.394 3.113 3.113 3.113s3.113-1.393 3.113-3.113c0-1.719-1.394-3.113-3.113-3.113s-3.113 1.394-3.113 3.113z"/><path d="m311.524 432.64c0 1.719 1.394 3.113 3.113 3.113s3.113-1.394 3.113-3.113-1.394-3.113-3.113-3.113-3.113 1.394-3.113 3.113z"/><path d="m304.936 459.262c-1.719 0-3.113 1.394-3.113 3.113s1.394 3.113 3.113 3.113 3.113-1.393 3.113-3.113c0-1.719-1.394-3.113-3.113-3.113z"/><path d="m281.753 462.375c0 1.719 1.394 3.113 3.113 3.113s3.113-1.393 3.113-3.113c0-1.719-1.394-3.113-3.113-3.113s-3.113 1.394-3.113 3.113z"/><path d="m277.567 472.788c0-1.719-1.394-3.113-3.113-3.113s-3.113 1.394-3.113 3.113c0 1.186.672 2.206 1.648 2.731 1.117-.072 2.221-.165 3.329-.251.754-.569 1.249-1.463 1.249-2.48z"/><path d="m257.497 472.788c0-1.719-1.394-3.113-3.113-3.113s-3.113 1.394-3.113 3.113 1.394 3.113 3.113 3.113 3.113-1.394 3.113-3.113z"/></g><path d="m440.404 372.919h-368.652l-17.675-44.608h401.477z"/><path d="m416.281 407.428h-320.735l-15.377-17.675h349.293z"/></g><g fill="#eaa895"><path d="m435.011 329.186c-1.719 0-3.113 1.394-3.113 3.113s1.394 3.113 3.113 3.113 3.113-1.393 3.113-3.113c0-1.719-1.393-3.113-3.113-3.113z"/><path d="m442.311 341.957c0 1.719 1.394 3.113 3.113 3.113s3.113-1.393 3.113-3.113c0-1.719-1.394-3.113-3.113-3.113s-3.113 1.393-3.113 3.113z"/><path d="m435.011 355.482c1.719 0 3.113-1.393 3.113-3.113 0-1.719-1.394-3.113-3.113-3.113s-3.113 1.394-3.113 3.113c0 1.72 1.394 3.113 3.113 3.113z"/><path d="m438.124 372.439c0-1.719-1.394-3.113-3.113-3.113s-3.113 1.394-3.113 3.113c0 .164.024.322.048.48h6.129c.026-.158.049-.316.049-.48z"/><path d="m414.942 335.413c1.719 0 3.113-1.393 3.113-3.113 0-1.719-1.394-3.113-3.113-3.113s-3.113 1.394-3.113 3.113 1.393 3.113 3.113 3.113z"/><path d="m425.354 345.07c1.719 0 3.113-1.393 3.113-3.113 0-1.719-1.394-3.113-3.113-3.113s-3.113 1.394-3.113 3.113 1.394 3.113 3.113 3.113z"/><path d="m414.942 355.482c1.719 0 3.113-1.393 3.113-3.113 0-1.719-1.394-3.113-3.113-3.113s-3.113 1.394-3.113 3.113c0 1.72 1.393 3.113 3.113 3.113z"/><path d="m425.354 365.139c1.719 0 3.113-1.393 3.113-3.113 0-1.719-1.394-3.113-3.113-3.113s-3.113 1.394-3.113 3.113c0 1.72 1.394 3.113 3.113 3.113z"/><path d="m418.055 372.439c0-1.719-1.394-3.113-3.113-3.113s-3.113 1.394-3.113 3.113c0 .164.024.322.048.48h6.129c.025-.158.049-.316.049-.48z"/><path d="m394.872 335.413c1.719 0 3.113-1.393 3.113-3.113 0-1.719-1.394-3.113-3.113-3.113s-3.113 1.394-3.113 3.113 1.394 3.113 3.113 3.113z"/><path d="m405.285 345.07c1.719 0 3.113-1.393 3.113-3.113 0-1.719-1.394-3.113-3.113-3.113s-3.113 1.394-3.113 3.113c-.001 1.719 1.393 3.113 3.113 3.113z"/><path d="m394.872 355.482c1.719 0 3.113-1.393 3.113-3.113 0-1.719-1.394-3.113-3.113-3.113s-3.113 1.394-3.113 3.113c0 1.72 1.394 3.113 3.113 3.113z"/><path d="m405.285 365.139c1.719 0 3.113-1.393 3.113-3.113 0-1.719-1.394-3.113-3.113-3.113s-3.113 1.394-3.113 3.113c-.001 1.72 1.393 3.113 3.113 3.113z"/><path d="m397.985 372.439c0-1.719-1.394-3.113-3.113-3.113s-3.113 1.394-3.113 3.113c0 .164.024.322.048.48h6.129c.025-.158.049-.316.049-.48z"/><path d="m385.215 345.07c1.719 0 3.113-1.393 3.113-3.113 0-1.719-1.394-3.113-3.113-3.113s-3.113 1.394-3.113 3.113 1.394 3.113 3.113 3.113z"/><path d="m374.738 355.479c1.719 0 3.113-1.394 3.113-3.113s-1.394-3.113-3.113-3.113-3.113 1.394-3.113 3.113c0 1.72 1.394 3.113 3.113 3.113z"/><path d="m385.215 365.139c1.719 0 3.113-1.393 3.113-3.113 0-1.719-1.394-3.113-3.113-3.113s-3.113 1.394-3.113 3.113c0 1.72 1.394 3.113 3.113 3.113z"/><path d="m377.915 372.439c0-1.719-1.394-3.113-3.113-3.113s-3.113 1.394-3.113 3.113c0 .164.024.322.048.48h6.129c.025-.158.049-.316.049-.48z"/></g><g fill="#eaa895"><path d="m411.829 392.509c0 1.719 1.394 3.113 3.113 3.113s3.113-1.394 3.113-3.113c0-1.206-.693-2.24-1.695-2.757h-2.836c-1.003.517-1.695 1.551-1.695 2.757z"/><path d="m391.759 392.509c0 1.719 1.394 3.113 3.113 3.113s3.113-1.394 3.113-3.113c0-1.206-.693-2.24-1.695-2.757h-2.835c-1.003.517-1.696 1.551-1.696 2.757z"/><path d="m402.171 402.166c0 1.719 1.394 3.113 3.113 3.113s3.113-1.394 3.113-3.113-1.394-3.113-3.113-3.113-3.113 1.394-3.113 3.113z"/><path d="m371.689 392.509c0 1.719 1.394 3.113 3.113 3.113s3.113-1.394 3.113-3.113c0-1.206-.693-2.24-1.695-2.757h-2.836c-1.002.517-1.695 1.551-1.695 2.757z"/><path d="m382.102 402.166c0 1.719 1.394 3.113 3.113 3.113s3.113-1.394 3.113-3.113-1.394-3.113-3.113-3.113-3.113 1.394-3.113 3.113z"/><path d="m352.637 390.22c-.265.399-.54.79-.807 1.187-.13.344-.21.712-.21 1.102 0 1.719 1.394 3.113 3.113 3.113s3.113-1.394 3.113-3.113c0-1.206-.693-2.24-1.695-2.757h-2.836c-.247.127-.475.283-.678.468z"/><path d="m362.032 402.166c0 1.719 1.394 3.113 3.113 3.113s3.113-1.394 3.113-3.113-1.394-3.113-3.113-3.113-3.113 1.394-3.113 3.113z"/><path d="m341.982 402.166c0 1.719 1.394 3.113 3.113 3.113s3.113-1.394 3.113-3.113-1.394-3.113-3.113-3.113-3.113 1.394-3.113 3.113z"/></g><path d="m462.855 269.044c-3.422-3.679-8.267-5.789-13.291-5.789h-16.973c-15.26-53.275-64.403-92.38-122.514-92.38-23.261 0-45.08 6.273-63.87 17.205l-45.072-176.628c-1.004-3.936-3.481-7.244-6.973-9.317-3.494-2.074-7.586-2.662-11.519-1.656-3.935 1.005-7.243 3.481-9.316 6.973-2.072 3.493-2.661 7.583-1.657 11.519l48.22 188.959c-7.254-4.212-15.085-7.529-23.341-9.821l-78.136-124.79c-2.155-3.443-5.522-5.84-9.48-6.75-3.96-.911-8.035-.224-11.476 1.933-7.105 4.449-9.266 13.85-4.817 20.955l66.141 105.632c-39.381 4.346-71.944 31.629-83.99 68.167h-13.501c-5.024 0-9.868 2.11-13.291 5.789-3.439 3.695-5.202 8.707-4.839 13.751 4.059 56.285 25.035 104.672 60.661 139.93 23.908 23.661 53.584 40.282 87.6 49.341h-4.424c-9.818 0-17.806 7.988-17.806 17.806v3.176c0 9.818 7.988 17.806 17.806 17.806h136.861c9.818 0 17.806-7.988 17.806-17.806v-3.176c0-9.818-7.988-17.806-17.806-17.806h-4.424c34.015-9.059 63.691-25.68 87.6-49.341 35.626-35.257 56.602-83.644 60.661-139.93.363-5.045-1.401-10.056-4.84-13.752zm-38.659-5.788h-24.476c-14.042-35.796-48.926-61.212-89.642-61.212-25.344 0-48.421 9.855-65.626 25.923-5.157-5.778-10.967-10.962-17.323-15.42 21.494-20.805 50.742-33.643 82.949-33.643 53.641 0 99.107 35.569 114.118 84.352zm-159.341 0c-.081-.246-.16-.493-.243-.738 10.61-13.457 27.038-22.121 45.465-22.121 18.762 0 35.453 8.981 46.039 22.859zm101.034 0c-11.681-18.539-32.327-30.887-55.811-30.887-19.325 0-36.726 8.366-48.793 21.659-3.145-7.079-7.079-13.731-11.706-19.834 15.808-14.931 37.09-24.122 60.499-24.122 36.201 0 67.37 21.922 80.954 53.184zm-185.658-251.707c.979-1.648 2.54-2.817 4.398-3.291 1.857-.476 3.787-.197 5.435.781s2.817 2.54 3.291 4.398l45.709 179.12c-4.325 2.914-8.462 6.085-12.389 9.493l-47.225-185.064c-.475-1.857-.197-3.789.781-5.437zm-80.787 73.646c-2.1-3.353-1.08-7.79 2.275-9.891 1.155-.724 2.462-1.097 3.793-1.097.539 0 1.083.061 1.622.185 1.868.429 3.457 1.561 4.475 3.187l73.971 118.138c-5.135-.816-10.395-1.255-15.756-1.255-.649 0-1.291.028-1.937.041zm70.38 117.296c39.771 0 73.724 25.365 86.546 60.765h-14.035c-12.134-28.049-40.058-47.734-72.511-47.734s-60.377 19.686-72.511 47.734h-14.036c12.822-35.401 46.775-60.765 86.547-60.765zm43.654 60.765c-9.756-13.59-25.687-22.463-43.655-22.463s-33.899 8.873-43.655 22.463h-20.023c11.577-23.495 35.764-39.706 63.678-39.706s52.101 16.211 63.678 39.706zm-10.392 0h-66.526c8.338-8.872 20.156-14.435 33.263-14.435s24.926 5.562 33.263 14.435zm120.772 216.838c5.392 0 9.778 4.386 9.778 9.778v3.176c0 5.392-4.386 9.778-9.778 9.778h-136.862c-5.392 0-9.778-4.386-9.778-9.778v-3.176c0-5.392 4.386-9.778 9.778-9.778zm135.829-197.877c-8.317 115.329-88.494 189.849-204.26 189.849s-195.943-74.52-204.26-189.849c-.207-2.868.755-5.605 2.709-7.704 1.937-2.083 4.57-3.229 7.413-3.229h388.275c2.843 0 5.476 1.146 7.414 3.229 1.954 2.099 2.915 4.836 2.709 7.704z" fill="#31373d"/></g></svg>