<svg id="Capa_1" enable-background="new 0 0 509.649 509.649" height="512" viewBox="0 0 509.649 509.649" width="512" xmlns="http://www.w3.org/2000/svg"><g><path d="m324.785 138.852c-6.841 0-13.715 1.021-20.574 2.934-33.722-48.753-77.151-87.465-119.347-87.465-98.618 0-203.979 211.446-176.386 268.357 11.576 23.875 70.081 39.879 136.524 45.176-2.093 16.25-1.174 29.925 3.398 39.355 13.855 28.576 94.931 45.879 176.386 47.041 81.455-1.162 162.531-18.465 176.386-47.041 27.592-56.911-77.768-268.357-176.387-268.357z" fill="#f9fbfc"/><g fill="#eaa895"><path d="m280.034 112.056c.371 0 .723-.076 1.052-.196-1.255-1.446-2.519-2.872-3.79-4.28-.214.42-.346.888-.346 1.392 0 1.704 1.381 3.084 3.084 3.084z"/><path d="m288.935 121.265c-.514-.641-1.03-1.281-1.548-1.916.228.835.794 1.523 1.548 1.916z"/><path d="m280.034 125.771c-1.703 0-3.084 1.381-3.084 3.084s1.381 3.084 3.084 3.084 3.084-1.381 3.084-3.084c.001-1.703-1.38-3.084-3.084-3.084z"/><path d="m290.35 135.338c-1.703 0-3.084 1.381-3.084 3.084s1.381 3.084 3.084 3.084 3.084-1.38 3.084-3.084c0-1.703-1.381-3.084-3.084-3.084z"/><path d="m280.034 145.654c-1.703 0-3.084 1.381-3.084 3.084s1.381 3.084 3.084 3.084 3.084-1.381 3.084-3.084c.001-1.703-1.38-3.084-3.084-3.084z"/><path d="m260.152 92.173c.578 0 1.114-.169 1.576-.446-1.445-1.346-2.898-2.663-4.357-3.95-.189.4-.303.841-.303 1.313 0 1.703 1.38 3.083 3.084 3.083z"/><path d="m270.467 101.74c.416 0 .811-.085 1.173-.234-1.326-1.382-2.659-2.742-4-4.078-.164.377-.258.791-.258 1.228.001 1.704 1.382 3.084 3.085 3.084z"/><path d="m260.152 105.888c-1.703 0-3.084 1.381-3.084 3.084s1.381 3.084 3.084 3.084 3.084-1.381 3.084-3.084-1.381-3.084-3.084-3.084z"/><path d="m270.467 115.455c-1.703 0-3.084 1.381-3.084 3.084s1.381 3.084 3.084 3.084 3.084-1.381 3.084-3.084-1.38-3.084-3.084-3.084z"/><path d="m260.152 125.771c-1.703 0-3.084 1.381-3.084 3.084s1.381 3.084 3.084 3.084 3.084-1.381 3.084-3.084-1.381-3.084-3.084-3.084z"/><path d="m270.467 135.338c-1.703 0-3.084 1.381-3.084 3.084s1.381 3.084 3.084 3.084 3.084-1.38 3.084-3.084c0-1.703-1.38-3.084-3.084-3.084z"/><path d="m260.152 145.654c-1.703 0-3.084 1.381-3.084 3.084s1.381 3.084 3.084 3.084 3.084-1.381 3.084-3.084-1.381-3.084-3.084-3.084z"/><path d="m250.317 81.831c-.88-.708-1.762-1.404-2.646-2.089.38 1.143 1.403 1.98 2.646 2.089z"/><path d="m240.269 86.005c-1.703 0-3.084 1.381-3.084 3.084s1.381 3.084 3.084 3.084 3.084-1.381 3.084-3.084-1.381-3.084-3.084-3.084z"/><path d="m250.585 95.572c-1.703 0-3.084 1.381-3.084 3.084s1.381 3.084 3.084 3.084 3.084-1.381 3.084-3.084-1.381-3.084-3.084-3.084z"/><path d="m240.269 105.888c-1.703 0-3.084 1.381-3.084 3.084s1.381 3.084 3.084 3.084 3.084-1.381 3.084-3.084-1.381-3.084-3.084-3.084z"/><path d="m250.585 115.455c-1.703 0-3.084 1.381-3.084 3.084s1.381 3.084 3.084 3.084 3.084-1.381 3.084-3.084-1.381-3.084-3.084-3.084z"/><path d="m240.269 125.771c-1.703 0-3.084 1.381-3.084 3.084s1.381 3.084 3.084 3.084 3.084-1.381 3.084-3.084-1.381-3.084-3.084-3.084z"/><path d="m250.585 135.338c-1.703 0-3.084 1.381-3.084 3.084s1.381 3.084 3.084 3.084 3.084-1.38 3.084-3.084c0-1.703-1.381-3.084-3.084-3.084z"/><path d="m240.269 145.654c-1.703 0-3.084 1.381-3.084 3.084s1.381 3.084 3.084 3.084 3.084-1.381 3.084-3.084-1.381-3.084-3.084-3.084z"/><path d="m250.585 155.221c-1.703 0-3.084 1.381-3.084 3.084s1.381 3.084 3.084 3.084 3.084-1.381 3.084-3.084-1.381-3.084-3.084-3.084z"/><path d="m240.269 165.536c-1.703 0-3.084 1.381-3.084 3.084s1.381 3.084 3.084 3.084 3.084-1.381 3.084-3.084-1.381-3.084-3.084-3.084z"/><path d="m220.386 66.122c-1.703 0-3.084 1.381-3.084 3.084s1.381 3.084 3.084 3.084 3.084-1.381 3.084-3.084-1.381-3.084-3.084-3.084z"/><path d="m230.702 75.689c-1.703 0-3.084 1.381-3.084 3.084s1.381 3.084 3.084 3.084 3.084-1.381 3.084-3.084-1.381-3.084-3.084-3.084z"/><path d="m220.386 86.005c-1.703 0-3.084 1.381-3.084 3.084s1.381 3.084 3.084 3.084 3.084-1.381 3.084-3.084-1.381-3.084-3.084-3.084z"/><path d="m230.702 95.572c-1.703 0-3.084 1.381-3.084 3.084s1.381 3.084 3.084 3.084 3.084-1.381 3.084-3.084-1.381-3.084-3.084-3.084z"/><path d="m220.386 105.888c-1.703 0-3.084 1.381-3.084 3.084s1.381 3.084 3.084 3.084 3.084-1.381 3.084-3.084-1.381-3.084-3.084-3.084z"/><path d="m230.702 115.455c-1.703 0-3.084 1.381-3.084 3.084s1.381 3.084 3.084 3.084 3.084-1.381 3.084-3.084-1.381-3.084-3.084-3.084z"/><path d="m220.386 125.771c-1.703 0-3.084 1.381-3.084 3.084s1.381 3.084 3.084 3.084 3.084-1.381 3.084-3.084-1.381-3.084-3.084-3.084z"/><path d="m230.702 135.338c-1.703 0-3.084 1.381-3.084 3.084s1.381 3.084 3.084 3.084 3.084-1.38 3.084-3.084c0-1.703-1.381-3.084-3.084-3.084z"/><path d="m220.386 145.654c-1.703 0-3.084 1.381-3.084 3.084s1.381 3.084 3.084 3.084 3.084-1.381 3.084-3.084-1.381-3.084-3.084-3.084z"/><path d="m230.702 155.221c-1.703 0-3.084 1.381-3.084 3.084s1.381 3.084 3.084 3.084 3.084-1.381 3.084-3.084-1.381-3.084-3.084-3.084z"/><path d="m220.386 165.536c-1.703 0-3.084 1.381-3.084 3.084s1.381 3.084 3.084 3.084 3.084-1.381 3.084-3.084-1.381-3.084-3.084-3.084z"/><path d="m230.702 175.103c-1.703 0-3.084 1.381-3.084 3.084s1.381 3.084 3.084 3.084 3.084-1.381 3.084-3.084c0-1.702-1.381-3.084-3.084-3.084z"/><path d="m207.735 58.891c0 1.703 1.381 3.084 3.084 3.084 1.315 0 2.43-.827 2.873-1.985-1.932-.738-3.867-1.415-5.803-2.015-.091.291-.154.595-.154.916z"/><path d="m200.503 66.122c-1.703 0-3.084 1.381-3.084 3.084s1.381 3.084 3.084 3.084 3.084-1.381 3.084-3.084-1.38-3.084-3.084-3.084z"/><path d="m210.819 75.689c-1.703 0-3.084 1.381-3.084 3.084s1.381 3.084 3.084 3.084 3.084-1.381 3.084-3.084-1.381-3.084-3.084-3.084z"/><path d="m200.503 86.005c-1.703 0-3.084 1.381-3.084 3.084s1.381 3.084 3.084 3.084 3.084-1.381 3.084-3.084-1.38-3.084-3.084-3.084z"/><path d="m210.819 95.572c-1.703 0-3.084 1.381-3.084 3.084s1.381 3.084 3.084 3.084 3.084-1.381 3.084-3.084-1.381-3.084-3.084-3.084z"/><path d="m200.503 105.888c-1.703 0-3.084 1.381-3.084 3.084s1.381 3.084 3.084 3.084 3.084-1.381 3.084-3.084-1.38-3.084-3.084-3.084z"/><path d="m210.819 115.455c-1.703 0-3.084 1.381-3.084 3.084s1.381 3.084 3.084 3.084 3.084-1.381 3.084-3.084-1.381-3.084-3.084-3.084z"/><path d="m200.503 125.771c-1.703 0-3.084 1.381-3.084 3.084s1.381 3.084 3.084 3.084 3.084-1.381 3.084-3.084-1.38-3.084-3.084-3.084z"/><path d="m210.819 135.338c-1.703 0-3.084 1.381-3.084 3.084s1.381 3.084 3.084 3.084 3.084-1.38 3.084-3.084c0-1.703-1.381-3.084-3.084-3.084z"/><path d="m200.503 145.654c-1.703 0-3.084 1.381-3.084 3.084s1.381 3.084 3.084 3.084 3.084-1.381 3.084-3.084-1.38-3.084-3.084-3.084z"/><path d="m210.819 155.221c-1.703 0-3.084 1.381-3.084 3.084s1.381 3.084 3.084 3.084 3.084-1.381 3.084-3.084-1.381-3.084-3.084-3.084z"/><path d="m200.503 165.536c-1.703 0-3.084 1.381-3.084 3.084s1.381 3.084 3.084 3.084 3.084-1.381 3.084-3.084-1.38-3.084-3.084-3.084z"/><path d="m210.819 175.103c-1.703 0-3.084 1.381-3.084 3.084s1.381 3.084 3.084 3.084 3.084-1.381 3.084-3.084c0-1.702-1.381-3.084-3.084-3.084z"/><path d="m190.936 55.807c-1.703 0-3.084 1.381-3.084 3.084s1.381 3.084 3.084 3.084 3.084-1.381 3.084-3.084-1.381-3.084-3.084-3.084z"/><path d="m180.62 66.122c-1.703 0-3.084 1.381-3.084 3.084s1.381 3.084 3.084 3.084 3.084-1.381 3.084-3.084c.001-1.703-1.38-3.084-3.084-3.084z"/><path d="m190.936 75.689c-1.703 0-3.084 1.381-3.084 3.084s1.381 3.084 3.084 3.084 3.084-1.381 3.084-3.084-1.381-3.084-3.084-3.084z"/><path d="m180.62 92.173c1.703 0 3.084-1.381 3.084-3.084s-1.381-3.084-3.084-3.084-3.084 1.381-3.084 3.084c0 1.704 1.381 3.084 3.084 3.084z"/><path d="m190.936 95.572c-1.703 0-3.084 1.381-3.084 3.084s1.381 3.084 3.084 3.084 3.084-1.381 3.084-3.084-1.381-3.084-3.084-3.084z"/><path d="m180.62 112.056c1.703 0 3.084-1.381 3.084-3.084s-1.381-3.084-3.084-3.084-3.084 1.381-3.084 3.084 1.381 3.084 3.084 3.084z"/><path d="m190.936 115.455c-1.703 0-3.084 1.381-3.084 3.084s1.381 3.084 3.084 3.084 3.084-1.381 3.084-3.084-1.381-3.084-3.084-3.084z"/><path d="m180.62 131.939c1.703 0 3.084-1.381 3.084-3.084s-1.381-3.084-3.084-3.084-3.084 1.381-3.084 3.084 1.381 3.084 3.084 3.084z"/><path d="m190.936 135.338c-1.703 0-3.084 1.381-3.084 3.084s1.381 3.084 3.084 3.084 3.084-1.38 3.084-3.084c0-1.703-1.381-3.084-3.084-3.084z"/><path d="m180.62 151.822c1.703 0 3.084-1.381 3.084-3.084s-1.381-3.084-3.084-3.084-3.084 1.381-3.084 3.084 1.381 3.084 3.084 3.084z"/><path d="m190.936 155.221c-1.703 0-3.084 1.381-3.084 3.084s1.381 3.084 3.084 3.084 3.084-1.381 3.084-3.084-1.381-3.084-3.084-3.084z"/><path d="m180.62 171.705c1.703 0 3.084-1.381 3.084-3.084s-1.381-3.084-3.084-3.084-3.084 1.381-3.084 3.084 1.381 3.084 3.084 3.084z"/><path d="m190.936 175.103c-1.703 0-3.084 1.381-3.084 3.084s1.381 3.084 3.084 3.084 3.084-1.381 3.084-3.084c0-1.702-1.381-3.084-3.084-3.084z"/><path d="m171.053 61.975c1.703 0 3.084-1.381 3.084-3.084s-1.381-3.084-3.084-3.084-3.084 1.381-3.084 3.084 1.381 3.084 3.084 3.084z"/><path d="m160.738 72.29c1.703 0 3.084-1.381 3.084-3.084s-1.381-3.084-3.084-3.084-3.084 1.381-3.084 3.084c-.001 1.704 1.38 3.084 3.084 3.084z"/><path d="m171.053 81.858c1.703 0 3.084-1.381 3.084-3.084s-1.381-3.084-3.084-3.084-3.084 1.381-3.084 3.084 1.381 3.084 3.084 3.084z"/><path d="m160.738 92.173c1.703 0 3.084-1.381 3.084-3.084s-1.381-3.084-3.084-3.084-3.084 1.381-3.084 3.084c-.001 1.704 1.38 3.084 3.084 3.084z"/><path d="m171.053 101.74c1.703 0 3.084-1.381 3.084-3.084s-1.381-3.084-3.084-3.084-3.084 1.381-3.084 3.084c0 1.704 1.381 3.084 3.084 3.084z"/><path d="m160.738 112.056c1.703 0 3.084-1.381 3.084-3.084s-1.381-3.084-3.084-3.084-3.084 1.381-3.084 3.084 1.38 3.084 3.084 3.084z"/><path d="m171.053 121.623c1.703 0 3.084-1.381 3.084-3.084s-1.381-3.084-3.084-3.084-3.084 1.381-3.084 3.084c0 1.704 1.381 3.084 3.084 3.084z"/><path d="m160.738 131.939c1.703 0 3.084-1.381 3.084-3.084s-1.381-3.084-3.084-3.084-3.084 1.381-3.084 3.084c-.001 1.703 1.38 3.084 3.084 3.084z"/><path d="m171.053 141.506c1.703 0 3.084-1.38 3.084-3.084 0-1.703-1.381-3.084-3.084-3.084s-3.084 1.381-3.084 3.084c0 1.704 1.381 3.084 3.084 3.084z"/><path d="m160.738 151.822c1.703 0 3.084-1.381 3.084-3.084s-1.381-3.084-3.084-3.084-3.084 1.381-3.084 3.084c-.001 1.703 1.38 3.084 3.084 3.084z"/><path d="m171.053 161.389c1.703 0 3.084-1.381 3.084-3.084s-1.381-3.084-3.084-3.084-3.084 1.381-3.084 3.084 1.381 3.084 3.084 3.084z"/><path d="m160.738 171.705c1.703 0 3.084-1.381 3.084-3.084s-1.381-3.084-3.084-3.084-3.084 1.381-3.084 3.084c-.001 1.703 1.38 3.084 3.084 3.084z"/><path d="m171.053 181.272c1.703 0 3.084-1.381 3.084-3.084s-1.381-3.084-3.084-3.084-3.084 1.381-3.084 3.084 1.381 3.084 3.084 3.084z"/><path d="m153.369 61.051c-.718.297-1.435.604-2.152.92.842-.013 1.602-.362 2.152-.92z"/><path d="m137.771 69.207c0 1.703 1.381 3.084 3.084 3.084s3.084-1.381 3.084-3.084c0-1.227-.722-2.278-1.76-2.775-1.464.8-2.924 1.636-4.382 2.506-.007.09-.026.177-.026.269z"/><path d="m151.17 75.689c-1.703 0-3.084 1.381-3.084 3.084s1.381 3.084 3.084 3.084 3.084-1.381 3.084-3.084c.001-1.703-1.38-3.084-3.084-3.084z"/><path d="m140.855 86.005c-1.703 0-3.084 1.381-3.084 3.084s1.381 3.084 3.084 3.084 3.084-1.381 3.084-3.084-1.381-3.084-3.084-3.084z"/><path d="m151.17 95.572c-1.703 0-3.084 1.381-3.084 3.084s1.381 3.084 3.084 3.084 3.084-1.381 3.084-3.084c.001-1.703-1.38-3.084-3.084-3.084z"/><path d="m140.855 105.888c-1.703 0-3.084 1.381-3.084 3.084s1.381 3.084 3.084 3.084 3.084-1.381 3.084-3.084-1.381-3.084-3.084-3.084z"/><path d="m151.17 115.455c-1.703 0-3.084 1.381-3.084 3.084s1.381 3.084 3.084 3.084 3.084-1.381 3.084-3.084c.001-1.703-1.38-3.084-3.084-3.084z"/><path d="m140.855 125.771c-1.703 0-3.084 1.381-3.084 3.084s1.381 3.084 3.084 3.084 3.084-1.381 3.084-3.084-1.381-3.084-3.084-3.084z"/><path d="m151.17 135.338c-1.703 0-3.084 1.381-3.084 3.084s1.381 3.084 3.084 3.084 3.084-1.38 3.084-3.084c.001-1.703-1.38-3.084-3.084-3.084z"/><path d="m140.855 145.654c-1.703 0-3.084 1.381-3.084 3.084s1.381 3.084 3.084 3.084 3.084-1.381 3.084-3.084-1.381-3.084-3.084-3.084z"/><path d="m151.17 155.221c-1.703 0-3.084 1.381-3.084 3.084s1.381 3.084 3.084 3.084 3.084-1.381 3.084-3.084c.001-1.703-1.38-3.084-3.084-3.084z"/><path d="m140.855 165.536c-1.703 0-3.084 1.381-3.084 3.084s1.381 3.084 3.084 3.084 3.084-1.381 3.084-3.084-1.381-3.084-3.084-3.084z"/><path d="m151.17 175.103c-1.703 0-3.084 1.381-3.084 3.084s1.381 3.084 3.084 3.084 3.084-1.381 3.084-3.084c.001-1.702-1.38-3.084-3.084-3.084z"/><path d="m131.288 75.689c-1.703 0-3.084 1.381-3.084 3.084s1.381 3.084 3.084 3.084 3.084-1.381 3.084-3.084-1.381-3.084-3.084-3.084z"/><path d="m120.972 86.005c-1.703 0-3.084 1.381-3.084 3.084s1.381 3.084 3.084 3.084 3.084-1.381 3.084-3.084-1.381-3.084-3.084-3.084z"/><path d="m131.288 95.572c-1.703 0-3.084 1.381-3.084 3.084s1.381 3.084 3.084 3.084 3.084-1.381 3.084-3.084-1.381-3.084-3.084-3.084z"/><path d="m120.972 105.888c-1.703 0-3.084 1.381-3.084 3.084s1.381 3.084 3.084 3.084 3.084-1.381 3.084-3.084-1.381-3.084-3.084-3.084z"/><path d="m131.288 115.455c-1.703 0-3.084 1.381-3.084 3.084s1.381 3.084 3.084 3.084 3.084-1.381 3.084-3.084-1.381-3.084-3.084-3.084z"/><path d="m120.972 125.771c-1.703 0-3.084 1.381-3.084 3.084s1.381 3.084 3.084 3.084 3.084-1.381 3.084-3.084-1.381-3.084-3.084-3.084z"/><path d="m131.288 135.338c-1.703 0-3.084 1.381-3.084 3.084s1.381 3.084 3.084 3.084 3.084-1.38 3.084-3.084c0-1.703-1.381-3.084-3.084-3.084z"/><path d="m120.972 145.654c-1.703 0-3.084 1.381-3.084 3.084s1.381 3.084 3.084 3.084 3.084-1.381 3.084-3.084-1.381-3.084-3.084-3.084z"/><path d="m131.288 155.221c-1.703 0-3.084 1.381-3.084 3.084s1.381 3.084 3.084 3.084 3.084-1.381 3.084-3.084-1.381-3.084-3.084-3.084z"/><path d="m120.972 165.536c-1.703 0-3.084 1.381-3.084 3.084s1.381 3.084 3.084 3.084 3.084-1.381 3.084-3.084-1.381-3.084-3.084-3.084z"/><path d="m131.288 175.103c-1.703 0-3.084 1.381-3.084 3.084s1.381 3.084 3.084 3.084 3.084-1.381 3.084-3.084c0-1.702-1.381-3.084-3.084-3.084z"/><path d="m120.972 185.419c-1.703 0-3.084 1.381-3.084 3.084s1.381 3.084 3.084 3.084 3.084-1.38 3.084-3.084c0-1.703-1.381-3.084-3.084-3.084z"/><path d="m111.405 95.572c-1.703 0-3.084 1.381-3.084 3.084s1.381 3.084 3.084 3.084 3.084-1.381 3.084-3.084-1.381-3.084-3.084-3.084z"/><path d="m101.089 105.888c-1.703 0-3.084 1.381-3.084 3.084s1.381 3.084 3.084 3.084 3.084-1.381 3.084-3.084-1.381-3.084-3.084-3.084z"/><path d="m111.405 115.455c-1.703 0-3.084 1.381-3.084 3.084s1.381 3.084 3.084 3.084 3.084-1.381 3.084-3.084-1.381-3.084-3.084-3.084z"/><path d="m101.089 125.771c-1.703 0-3.084 1.381-3.084 3.084s1.381 3.084 3.084 3.084 3.084-1.381 3.084-3.084-1.381-3.084-3.084-3.084z"/><path d="m111.405 135.338c-1.703 0-3.084 1.381-3.084 3.084s1.381 3.084 3.084 3.084 3.084-1.38 3.084-3.084c0-1.703-1.381-3.084-3.084-3.084z"/><path d="m101.089 145.654c-1.703 0-3.084 1.381-3.084 3.084s1.381 3.084 3.084 3.084 3.084-1.381 3.084-3.084-1.381-3.084-3.084-3.084z"/><path d="m111.405 155.221c-1.703 0-3.084 1.381-3.084 3.084s1.381 3.084 3.084 3.084 3.084-1.381 3.084-3.084-1.381-3.084-3.084-3.084z"/><path d="m101.089 165.536c-1.703 0-3.084 1.381-3.084 3.084s1.381 3.084 3.084 3.084 3.084-1.381 3.084-3.084-1.381-3.084-3.084-3.084z"/><path d="m111.405 175.103c-1.703 0-3.084 1.381-3.084 3.084s1.381 3.084 3.084 3.084 3.084-1.381 3.084-3.084c0-1.702-1.381-3.084-3.084-3.084z"/><path d="m101.089 185.419c-1.703 0-3.084 1.381-3.084 3.084s1.381 3.084 3.084 3.084 3.084-1.38 3.084-3.084c0-1.703-1.381-3.084-3.084-3.084z"/><path d="m111.405 194.986c-1.703 0-3.084 1.381-3.084 3.084s1.381 3.084 3.084 3.084 3.084-1.38 3.084-3.084c0-1.703-1.381-3.084-3.084-3.084z"/><path d="m101.089 205.302c-1.703 0-3.084 1.381-3.084 3.084s1.381 3.084 3.084 3.084 3.084-1.381 3.084-3.084-1.381-3.084-3.084-3.084z"/><path d="m101.089 225.185c-1.703 0-3.084 1.381-3.084 3.084s1.381 3.084 3.084 3.084 3.084-1.381 3.084-3.084-1.381-3.084-3.084-3.084z"/><path d="m101.089 245.068c-1.703 0-3.084 1.381-3.084 3.084s1.381 3.084 3.084 3.084 3.084-1.38 3.084-3.084c0-1.703-1.381-3.084-3.084-3.084z"/><path d="m101.089 264.95c-1.703 0-3.084 1.381-3.084 3.084s1.381 3.084 3.084 3.084 3.084-1.381 3.084-3.084-1.381-3.084-3.084-3.084z"/><path d="m101.089 284.833c-1.703 0-3.084 1.381-3.084 3.084s1.381 3.084 3.084 3.084 3.084-1.38 3.084-3.084c0-1.703-1.381-3.084-3.084-3.084z"/><path d="m101.089 304.716c-1.703 0-3.084 1.381-3.084 3.084s1.381 3.084 3.084 3.084 3.084-1.38 3.084-3.084c0-1.703-1.381-3.084-3.084-3.084z"/><path d="m101.089 324.599c-1.703 0-3.084 1.381-3.084 3.084s1.381 3.084 3.084 3.084 3.084-1.38 3.084-3.084c0-1.703-1.381-3.084-3.084-3.084z"/><path d="m101.089 344.482c-1.703 0-3.084 1.381-3.084 3.084s1.381 3.084 3.084 3.084 3.084-1.381 3.084-3.084-1.381-3.084-3.084-3.084z"/><path d="m91.522 115.455c-1.703 0-3.084 1.381-3.084 3.084s1.381 3.084 3.084 3.084 3.084-1.381 3.084-3.084-1.381-3.084-3.084-3.084z"/><path d="m81.206 125.771c-1.703 0-3.084 1.381-3.084 3.084s1.381 3.084 3.084 3.084 3.084-1.381 3.084-3.084-1.38-3.084-3.084-3.084z"/><path d="m91.522 135.338c-1.703 0-3.084 1.381-3.084 3.084s1.381 3.084 3.084 3.084 3.084-1.38 3.084-3.084c0-1.703-1.381-3.084-3.084-3.084z"/><path d="m81.206 145.654c-1.703 0-3.084 1.381-3.084 3.084s1.381 3.084 3.084 3.084 3.084-1.381 3.084-3.084-1.38-3.084-3.084-3.084z"/><path d="m91.522 155.221c-1.703 0-3.084 1.381-3.084 3.084s1.381 3.084 3.084 3.084 3.084-1.381 3.084-3.084-1.381-3.084-3.084-3.084z"/><path d="m81.206 165.536c-1.703 0-3.084 1.381-3.084 3.084s1.381 3.084 3.084 3.084 3.084-1.381 3.084-3.084-1.38-3.084-3.084-3.084z"/><path d="m91.522 175.103c-1.703 0-3.084 1.381-3.084 3.084s1.381 3.084 3.084 3.084 3.084-1.381 3.084-3.084c0-1.702-1.381-3.084-3.084-3.084z"/><path d="m81.206 185.419c-1.703 0-3.084 1.381-3.084 3.084s1.381 3.084 3.084 3.084 3.084-1.38 3.084-3.084c0-1.703-1.38-3.084-3.084-3.084z"/><path d="m91.522 194.986c-1.703 0-3.084 1.381-3.084 3.084s1.381 3.084 3.084 3.084 3.084-1.38 3.084-3.084c0-1.703-1.381-3.084-3.084-3.084z"/><path d="m81.206 205.302c-1.703 0-3.084 1.381-3.084 3.084s1.381 3.084 3.084 3.084 3.084-1.381 3.084-3.084-1.38-3.084-3.084-3.084z"/><path d="m91.522 214.869c-1.703 0-3.084 1.381-3.084 3.084s1.381 3.084 3.084 3.084 3.084-1.38 3.084-3.084c0-1.703-1.381-3.084-3.084-3.084z"/><path d="m81.206 225.185c-1.703 0-3.084 1.381-3.084 3.084s1.381 3.084 3.084 3.084 3.084-1.381 3.084-3.084-1.38-3.084-3.084-3.084z"/><path d="m91.522 234.752c-1.703 0-3.084 1.381-3.084 3.084s1.381 3.084 3.084 3.084 3.084-1.38 3.084-3.084c0-1.703-1.381-3.084-3.084-3.084z"/><path d="m81.206 245.068c-1.703 0-3.084 1.381-3.084 3.084s1.381 3.084 3.084 3.084 3.084-1.38 3.084-3.084c0-1.703-1.38-3.084-3.084-3.084z"/><path d="m91.522 254.635c-1.703 0-3.084 1.381-3.084 3.084s1.381 3.084 3.084 3.084 3.084-1.38 3.084-3.084c0-1.703-1.381-3.084-3.084-3.084z"/><path d="m81.206 264.95c-1.703 0-3.084 1.381-3.084 3.084s1.381 3.084 3.084 3.084 3.084-1.381 3.084-3.084-1.38-3.084-3.084-3.084z"/><path d="m91.522 274.518c-1.703 0-3.084 1.381-3.084 3.084s1.381 3.084 3.084 3.084 3.084-1.381 3.084-3.084-1.381-3.084-3.084-3.084z"/><path d="m81.206 284.833c-1.703 0-3.084 1.381-3.084 3.084s1.381 3.084 3.084 3.084 3.084-1.38 3.084-3.084c0-1.703-1.38-3.084-3.084-3.084z"/><path d="m91.522 294.4c-1.703 0-3.084 1.381-3.084 3.084s1.381 3.084 3.084 3.084 3.084-1.381 3.084-3.084-1.381-3.084-3.084-3.084z"/><path d="m81.206 304.716c-1.703 0-3.084 1.381-3.084 3.084s1.381 3.084 3.084 3.084 3.084-1.38 3.084-3.084c0-1.703-1.38-3.084-3.084-3.084z"/><path d="m91.522 314.283c-1.703 0-3.084 1.381-3.084 3.084s1.381 3.084 3.084 3.084 3.084-1.381 3.084-3.084-1.381-3.084-3.084-3.084z"/><path d="m81.206 324.599c-1.703 0-3.084 1.381-3.084 3.084s1.381 3.084 3.084 3.084 3.084-1.38 3.084-3.084c0-1.703-1.38-3.084-3.084-3.084z"/><path d="m91.522 334.166c-1.703 0-3.084 1.381-3.084 3.084s1.381 3.084 3.084 3.084 3.084-1.38 3.084-3.084c0-1.703-1.381-3.084-3.084-3.084z"/><path d="m81.206 344.482c-1.703 0-3.084 1.381-3.084 3.084s1.381 3.084 3.084 3.084 3.084-1.381 3.084-3.084-1.38-3.084-3.084-3.084z"/><path d="m91.522 354.049c-1.703 0-3.084 1.381-3.084 3.084s1.381 3.084 3.084 3.084 3.084-1.38 3.084-3.084c0-1.703-1.381-3.084-3.084-3.084z"/><path d="m71.639 141.506c1.703 0 3.084-1.38 3.084-3.084 0-1.703-1.381-3.084-3.084-3.084-.998 0-1.875.481-2.439 1.216-.054.076-.109.151-.164.228-.3.476-.481 1.035-.481 1.64 0 1.704 1.381 3.084 3.084 3.084z"/><path d="m64.408 148.738c0-1.221-.716-2.267-1.745-2.767-1.132 1.683-2.253 3.376-3.361 5.079.542.475 1.244.772 2.022.772 1.703 0 3.084-1.381 3.084-3.084z"/><path d="m71.639 155.221c-1.703 0-3.084 1.381-3.084 3.084s1.381 3.084 3.084 3.084 3.084-1.381 3.084-3.084-1.38-3.084-3.084-3.084z"/><path d="m61.324 165.536c-1.703 0-3.084 1.381-3.084 3.084s1.381 3.084 3.084 3.084 3.084-1.381 3.084-3.084-1.381-3.084-3.084-3.084z"/><path d="m71.639 175.103c-1.703 0-3.084 1.381-3.084 3.084s1.381 3.084 3.084 3.084 3.084-1.381 3.084-3.084c0-1.702-1.38-3.084-3.084-3.084z"/><path d="m61.324 185.419c-1.703 0-3.084 1.381-3.084 3.084s1.381 3.084 3.084 3.084 3.084-1.38 3.084-3.084c0-1.703-1.381-3.084-3.084-3.084z"/><path d="m71.639 194.986c-1.703 0-3.084 1.381-3.084 3.084s1.381 3.084 3.084 3.084 3.084-1.38 3.084-3.084c0-1.703-1.38-3.084-3.084-3.084z"/><path d="m61.324 205.302c-1.703 0-3.084 1.381-3.084 3.084s1.381 3.084 3.084 3.084 3.084-1.381 3.084-3.084-1.381-3.084-3.084-3.084z"/><path d="m71.639 214.869c-1.703 0-3.084 1.381-3.084 3.084s1.381 3.084 3.084 3.084 3.084-1.38 3.084-3.084c0-1.703-1.38-3.084-3.084-3.084z"/><path d="m61.324 225.185c-1.703 0-3.084 1.381-3.084 3.084s1.381 3.084 3.084 3.084 3.084-1.381 3.084-3.084-1.381-3.084-3.084-3.084z"/><path d="m71.639 234.752c-1.703 0-3.084 1.381-3.084 3.084s1.381 3.084 3.084 3.084 3.084-1.38 3.084-3.084c0-1.703-1.38-3.084-3.084-3.084z"/><path d="m61.324 245.068c-1.703 0-3.084 1.381-3.084 3.084s1.381 3.084 3.084 3.084 3.084-1.38 3.084-3.084c0-1.703-1.381-3.084-3.084-3.084z"/><path d="m71.639 254.635c-1.703 0-3.084 1.381-3.084 3.084s1.381 3.084 3.084 3.084 3.084-1.38 3.084-3.084c0-1.703-1.38-3.084-3.084-3.084z"/><path d="m61.324 264.95c-1.703 0-3.084 1.381-3.084 3.084s1.381 3.084 3.084 3.084 3.084-1.381 3.084-3.084-1.381-3.084-3.084-3.084z"/><path d="m71.639 274.518c-1.703 0-3.084 1.381-3.084 3.084s1.381 3.084 3.084 3.084 3.084-1.381 3.084-3.084-1.38-3.084-3.084-3.084z"/><path d="m61.324 284.833c-1.703 0-3.084 1.381-3.084 3.084s1.381 3.084 3.084 3.084 3.084-1.38 3.084-3.084c0-1.703-1.381-3.084-3.084-3.084z"/><path d="m71.639 294.4c-1.703 0-3.084 1.381-3.084 3.084s1.381 3.084 3.084 3.084 3.084-1.381 3.084-3.084-1.38-3.084-3.084-3.084z"/><path d="m61.324 304.716c-1.703 0-3.084 1.381-3.084 3.084s1.381 3.084 3.084 3.084 3.084-1.38 3.084-3.084c0-1.703-1.381-3.084-3.084-3.084z"/><path d="m71.639 314.283c-1.703 0-3.084 1.381-3.084 3.084s1.381 3.084 3.084 3.084 3.084-1.381 3.084-3.084-1.38-3.084-3.084-3.084z"/><path d="m61.324 324.599c-1.703 0-3.084 1.381-3.084 3.084s1.381 3.084 3.084 3.084 3.084-1.38 3.084-3.084c0-1.703-1.381-3.084-3.084-3.084z"/><path d="m71.639 334.166c-1.703 0-3.084 1.381-3.084 3.084s1.381 3.084 3.084 3.084 3.084-1.38 3.084-3.084c0-1.703-1.38-3.084-3.084-3.084z"/><path d="m61.324 344.482c-1.703 0-3.084 1.381-3.084 3.084s1.381 3.084 3.084 3.084 3.084-1.381 3.084-3.084-1.381-3.084-3.084-3.084z"/><path d="m74.723 357.133c0-1.703-1.381-3.084-3.084-3.084-1.242 0-2.306.739-2.795 1.797 1.923.498 3.877.984 5.862 1.457.003-.058.017-.112.017-.17z"/><path d="m54.84 158.305c0-.071-.016-.138-.021-.208-.632 1.016-1.26 2.035-1.883 3.056 1.118-.464 1.904-1.563 1.904-2.848z"/><path d="m51.756 175.103c-1.703 0-3.084 1.381-3.084 3.084s1.381 3.084 3.084 3.084 3.084-1.381 3.084-3.084c0-1.702-1.38-3.084-3.084-3.084z"/><path d="m41.441 185.419c-1.703 0-3.084 1.381-3.084 3.084s1.381 3.084 3.084 3.084 3.084-1.38 3.084-3.084c0-1.703-1.381-3.084-3.084-3.084z"/><path d="m51.756 194.986c-1.703 0-3.084 1.381-3.084 3.084s1.381 3.084 3.084 3.084 3.084-1.38 3.084-3.084c0-1.703-1.38-3.084-3.084-3.084z"/><path d="m41.441 205.302c-1.703 0-3.084 1.381-3.084 3.084s1.381 3.084 3.084 3.084 3.084-1.381 3.084-3.084-1.381-3.084-3.084-3.084z"/><path d="m51.756 214.869c-1.703 0-3.084 1.381-3.084 3.084s1.381 3.084 3.084 3.084 3.084-1.38 3.084-3.084c0-1.703-1.38-3.084-3.084-3.084z"/><path d="m41.441 225.185c-1.703 0-3.084 1.381-3.084 3.084s1.381 3.084 3.084 3.084 3.084-1.381 3.084-3.084-1.381-3.084-3.084-3.084z"/><path d="m51.756 234.752c-1.703 0-3.084 1.381-3.084 3.084s1.381 3.084 3.084 3.084 3.084-1.38 3.084-3.084c0-1.703-1.38-3.084-3.084-3.084z"/><path d="m41.441 245.068c-1.703 0-3.084 1.381-3.084 3.084s1.381 3.084 3.084 3.084 3.084-1.38 3.084-3.084c0-1.703-1.381-3.084-3.084-3.084z"/><path d="m51.756 254.635c-1.703 0-3.084 1.381-3.084 3.084s1.381 3.084 3.084 3.084 3.084-1.38 3.084-3.084c0-1.703-1.38-3.084-3.084-3.084z"/><path d="m41.441 264.95c-1.703 0-3.084 1.381-3.084 3.084s1.381 3.084 3.084 3.084 3.084-1.381 3.084-3.084-1.381-3.084-3.084-3.084z"/><path d="m51.756 274.518c-1.703 0-3.084 1.381-3.084 3.084s1.381 3.084 3.084 3.084 3.084-1.381 3.084-3.084-1.38-3.084-3.084-3.084z"/><path d="m41.441 284.833c-1.703 0-3.084 1.381-3.084 3.084s1.381 3.084 3.084 3.084 3.084-1.38 3.084-3.084c0-1.703-1.381-3.084-3.084-3.084z"/><path d="m51.756 294.4c-1.703 0-3.084 1.381-3.084 3.084s1.381 3.084 3.084 3.084 3.084-1.381 3.084-3.084-1.38-3.084-3.084-3.084z"/><path d="m41.441 304.716c-1.703 0-3.084 1.381-3.084 3.084s1.381 3.084 3.084 3.084 3.084-1.38 3.084-3.084c0-1.703-1.381-3.084-3.084-3.084z"/><path d="m51.756 314.283c-1.703 0-3.084 1.381-3.084 3.084s1.381 3.084 3.084 3.084 3.084-1.381 3.084-3.084-1.38-3.084-3.084-3.084z"/><path d="m41.441 324.599c-1.703 0-3.084 1.381-3.084 3.084s1.381 3.084 3.084 3.084 3.084-1.38 3.084-3.084c0-1.703-1.381-3.084-3.084-3.084z"/><path d="m51.756 334.166c-1.703 0-3.084 1.381-3.084 3.084s1.381 3.084 3.084 3.084 3.084-1.38 3.084-3.084c0-1.703-1.38-3.084-3.084-3.084z"/><path d="m41.441 344.482c-1.088 0-2.039.567-2.589 1.417 1.808.776 3.681 1.534 5.611 2.275.039-.197.061-.4.061-.608.001-1.703-1.38-3.084-3.083-3.084z"/><path d="m34.958 198.071c0-.896-.388-1.695-.997-2.259-.862 1.766-1.709 3.532-2.54 5.297.149.022.298.046.453.046 1.703 0 3.084-1.381 3.084-3.084z"/><path d="m31.874 214.869c-1.703 0-3.084 1.381-3.084 3.084s1.381 3.084 3.084 3.084 3.084-1.38 3.084-3.084c0-1.703-1.381-3.084-3.084-3.084z"/><path d="m21.558 231.353c1.703 0 3.084-1.381 3.084-3.084s-1.381-3.084-3.084-3.084c-.183 0-.36.023-.534.054-.643 1.647-1.272 3.29-1.883 4.926.565.718 1.432 1.188 2.417 1.188z"/><path d="m31.874 234.752c-1.703 0-3.084 1.381-3.084 3.084s1.381 3.084 3.084 3.084 3.084-1.38 3.084-3.084c0-1.703-1.381-3.084-3.084-3.084z"/><path d="m21.558 245.068c-1.703 0-3.084 1.381-3.084 3.084s1.381 3.084 3.084 3.084 3.084-1.38 3.084-3.084c0-1.703-1.381-3.084-3.084-3.084z"/><path d="m31.874 254.635c-1.703 0-3.084 1.381-3.084 3.084s1.381 3.084 3.084 3.084 3.084-1.38 3.084-3.084c0-1.703-1.381-3.084-3.084-3.084z"/><path d="m21.558 264.95c-1.703 0-3.084 1.381-3.084 3.084s1.381 3.084 3.084 3.084 3.084-1.381 3.084-3.084-1.381-3.084-3.084-3.084z"/><path d="m31.874 274.518c-1.703 0-3.084 1.381-3.084 3.084s1.381 3.084 3.084 3.084 3.084-1.381 3.084-3.084-1.381-3.084-3.084-3.084z"/><path d="m21.558 284.833c-1.703 0-3.084 1.381-3.084 3.084s1.381 3.084 3.084 3.084 3.084-1.38 3.084-3.084c0-1.703-1.381-3.084-3.084-3.084z"/><path d="m31.874 294.4c-1.703 0-3.084 1.381-3.084 3.084s1.381 3.084 3.084 3.084 3.084-1.381 3.084-3.084-1.381-3.084-3.084-3.084z"/><path d="m21.558 304.716c-1.703 0-3.084 1.381-3.084 3.084s1.381 3.084 3.084 3.084 3.084-1.38 3.084-3.084c0-1.703-1.381-3.084-3.084-3.084z"/><path d="m31.874 314.283c-1.703 0-3.084 1.381-3.084 3.084s1.381 3.084 3.084 3.084 3.084-1.381 3.084-3.084-1.381-3.084-3.084-3.084z"/><path d="m21.558 324.599c-1.703 0-3.084 1.381-3.084 3.084s1.381 3.084 3.084 3.084 3.084-1.38 3.084-3.084c0-1.703-1.381-3.084-3.084-3.084z"/><path d="m31.874 334.166c-1.703 0-3.084 1.381-3.084 3.084s1.381 3.084 3.084 3.084 3.084-1.38 3.084-3.084c0-1.703-1.381-3.084-3.084-3.084z"/><path d="m11.991 260.803c1.703 0 3.084-1.38 3.084-3.084 0-1.703-1.381-3.084-3.084-3.084-.324 0-.631.064-.924.157-.47 1.682-.918 3.35-1.343 5.003.563.615 1.366 1.008 2.267 1.008z"/><path d="m11.991 274.518c-1.703 0-3.084 1.381-3.084 3.084s1.381 3.084 3.084 3.084 3.084-1.381 3.084-3.084-1.381-3.084-3.084-3.084z"/><path d="m4.759 287.918c0-.277-.048-.541-.117-.796-.073.717-.14 1.428-.2 2.134.197-.407.317-.857.317-1.338z"/><path d="m11.991 294.4c-1.703 0-3.084 1.381-3.084 3.084s1.381 3.084 3.084 3.084 3.084-1.381 3.084-3.084-1.381-3.084-3.084-3.084z"/><path d="m4.344 306.282c.075.821.162 1.631.264 2.425.089-.288.151-.588.151-.906 0-.555-.158-1.069-.415-1.519z"/><path d="m11.991 320.451c1.703 0 3.084-1.381 3.084-3.084s-1.381-3.084-3.084-3.084-3.084 1.381-3.084 3.084c0 1.704 1.381 3.084 3.084 3.084z"/></g><g fill="#31373d"><path d="m214.032 125.859c-2.196 0-3.977-1.781-3.977-3.977 0-11.421-9.292-20.713-20.713-20.713s-20.713 9.292-20.713 20.713c0 2.196-1.781 3.977-3.977 3.977s-3.977-1.781-3.977-3.977c0-15.806 12.86-28.666 28.666-28.666s28.666 12.86 28.666 28.666c.001 2.196-1.779 3.977-3.975 3.977z"/><path d="m501.582 335.335c-8.984-30.835-24.65-64.925-44.111-95.99-18.728-29.892-39.856-55.166-61.102-73.091-24.679-20.822-48.763-31.378-71.584-31.378-6.219 0-12.532.79-18.925 2.352-15.628-22.242-32.478-41.218-49.412-55.505-24.679-20.822-48.764-31.379-71.584-31.379s-46.905 10.557-71.584 31.379c-21.245 17.925-42.373 43.199-61.101 73.091-19.462 31.065-35.128 65.155-44.112 95.99-6.654 22.837-12.604 54.146-3.167 73.609 11.18 23.057 59.467 37.747 113.698 44.666 5.897 3.61 12.825 5.694 20.231 5.694h1.436c-.962 12.626.002 24.778 4.556 34.171 11.18 23.057 59.466 37.746 113.697 44.666 5.898 3.61 12.826 5.695 20.233 5.695h92.069c7.407 0 14.335-2.085 20.233-5.695 54.231-6.919 102.517-21.609 113.697-44.666 9.436-19.463 3.486-50.772-3.168-73.609zm-401.621-114.817v115.386c0 8.932 3.036 17.164 8.12 23.735-12.754-1.926-24.801-4.272-35.797-7.02-32.925-8.228-54.314-19.478-60.229-31.677-13.35-27.535 7.234-98.653 46.862-161.906 39.52-63.078 86.602-100.738 125.947-100.738 35.11 0 76.376 30.015 112.936 81.298-8.008 2.743-16.13 6.675-24.342 11.791-1.548-14.357-13.735-25.573-28.496-25.573-15.806 0-28.666 12.86-28.666 28.666 0 2.196 1.781 3.976 3.977 3.976s3.977-1.78 3.977-3.976c0-11.421 9.292-20.713 20.713-20.713 11.42 0 20.712 9.292 20.712 20.713 0 .645.168 1.245.44 1.783-4.284 3.016-8.59 6.343-12.914 9.991-5.639 4.758-11.268 10.048-16.849 15.79-1.783-.253-3.602-.395-5.454-.395h-92.069c-21.432.001-38.868 17.437-38.868 38.869zm397.632 184.956c-5.914 12.199-27.304 23.449-60.229 31.677-10.997 2.748-23.046 5.095-35.799 7.024 5.086-6.572 8.124-14.805 8.124-23.739v-115.386c0-21.432-17.436-38.869-38.869-38.869h-92.069c-21.432 0-38.868 17.436-38.868 38.869v115.386c0 8.934 3.037 17.167 8.123 23.739-12.753-1.929-24.802-4.276-35.799-7.024-32.925-8.228-54.315-19.478-60.229-31.677-13.35-27.535 7.234-98.653 46.863-161.906 39.519-63.079 86.601-100.739 125.946-100.739s86.427 37.659 125.946 100.738c39.626 63.254 60.211 134.372 46.86 161.907z"/><path d="m353.953 210.39c-2.196 0-3.977-1.781-3.977-3.977 0-11.421-9.292-20.713-20.713-20.713s-20.713 9.292-20.713 20.713c0 2.196-1.781 3.977-3.977 3.977s-3.976-1.781-3.976-3.977c0-15.806 12.86-28.666 28.666-28.666s28.666 12.86 28.666 28.666c.001 2.196-1.78 3.977-3.976 3.977z"/><path d="m409.574 242.988c-2.196 0-3.977-1.781-3.977-3.977 0-11.421-9.292-20.713-20.713-20.713s-20.713 9.292-20.713 20.713c0 2.196-1.78 3.977-3.977 3.977-2.196 0-3.977-1.781-3.977-3.977 0-15.806 12.86-28.666 28.666-28.666s28.666 12.86 28.666 28.666c.001 2.196-1.779 3.977-3.975 3.977z"/></g></g></svg>